<svg xmlns="http://www.w3.org/2000/svg" width="512" height="512" viewBox="0 0 512 512"><path fill="#3c3c3b" d="M490.58 383.03c-14.153-22.087-61.764-35.825-108.836-55.454-47.103-19.633-58.268-26.44-58.268-26.44l-.445-45.18s17.647-13.558 23.128-56.075c11.01 3.2 22.62-16.46 23.237-26.823.625-9.98-1.508-37.662-14.98-34.877 2.753-20.845 4.74-39.586 3.763-49.505-3.495-36.295-39.23-74.578-94.182-74.578-54.95 0-90.7 38.283-94.193 74.578-.978 9.92 1.02 28.66 3.758 49.505-13.454-2.785-15.586 24.897-14.978 34.877.635 10.363 12.196 30.02 23.255 26.824 5.462 42.518 23.122 56.075 23.122 56.075l-.442 45.182s-11.178 6.807-58.268 26.44c-47.104 19.628-94.683 33.366-108.85 55.452-12.7 19.776-8.883 114.874-8.883 114.874h470.946s3.818-95.098-8.884-114.875z"/></svg>