<svg id="Capa_1" data-name="Capa 1" xmlns="http://www.w3.org/2000/svg" viewBox="0 0 360 155.98"><defs><style>.cls-1{fill:#3c3c3b;}</style></defs><title>cerebro</title><path class="cls-1" d="M77.61 151.15l-11.82-32.46 1.17-.13 5.16-21.91 37.09 18.61zm-10.45-31.6L78 149.22l29.61-33.65-34.82-17.46-5 21.37z"/><path class="cls-1" d="M108.51 116L71.12 97.27l43-13.33 7 17.77zM73.78 97.49l34.49 17.3L120 101.52l-6.44-16.34z"/><path class="cls-1" d="M160.17 86.62L112.93 85l17.22-27.76zm-45.48-2.53l42.94 1.44-27.29-26.68z"/><path class="cls-1" d="M133.35 128.5l-25.76-12.93L120 101.52 113.07 84l46.71 1.57zm-24.15-13.24l23.8 11.93 25-40.65-43.47-1.46 6.55 16.63z"/><path class="cls-1" d="M66.14 119.66L53 83.59l.54-1.59 63.26 2.13-43.93 13.64-5.11 21.7zM54.06 83.58l12.75 35h.14L72 97l38.8-12-56.59-1.9z"/><path class="cls-1" d="M113.71 85.67L89.79 24.94l30.48 2.19 10.52 31-.12.2zM91.3 26l22.61 57.4L129.7 58l-10.16-29.93z"/><path class="cls-1" d="M120.62 28.15l-31.2-2.24 19-19 7.46 7.46v.11zm-28.94-3.08l27.52 2-4.13-12.17-6.59-6.59zM39.62 122.57l13.9-40.48 13.64 37.45zm13.92-37.48L41.08 121.4l24.71-2.71z"/><path class="cls-1" d="M144.61 152.67H29.28L40 121.52l26.83-2.95L78 149.22l30.3-34.43 25.28 12.68zm-113.93-1h112.4l-10.31-23.46L108.51 116l-30.9 35.11-11.47-31.45-25.42 2.79z"/><path class="cls-1" d="M151.61 152.67h-8.09L132.6 127.8l26.52-43 12.35 53.5zm-7.44-1h7.11l19.06-13.81-11.65-50.49-25 40.51z"/><path class="cls-1" d="M159.2 87.06L129.45 58l42.21-27.82zM131 58.14l27.57 27 11.55-52.73z"/><path class="cls-1" d="M171.41 142.45l-13-56.37v-.11l13-59.33v115.81zm-12-56.38l11 47.6V35.88z"/><path class="cls-1" d="M130 58.83L119.19 27l53.22 3.82zm-9.36-30.68l9.89 29.13 38.87-25.63z"/><path class="cls-1" d="M172.21 31.85l-52.67-3.78-4.62-13.61 11.16-11.15h17.59zm-51.93-4.73l49.33 3.54-26.35-26.35h-16.77l-10.42 10.43zM115.08 85.1L53 83l23.12-36zm-60.3-3l57.76 1.9L76.3 48.59z"/><path class="cls-1" d="M52.89 83.28l-4.78-13.12-5.83-13 40.3-40.34 8.6 8.6L54.2 83zm-9.42-25.93L49 69.79l4.49 12.33h.05l22-34.23-11.41-11.2zM64.84 36l11.28 11 13.79-21.44-7.33-7.33z"/><path class="cls-1" d="M115.13 86.55L75.57 47.87 90.66 24.4zM76.85 47.73l35.64 34.84-22.05-56zM2.23 94.83l32.5-32.5L49 69.64l4.89 13.43zm32.7-31.28L5.39 93.08l47.15-10.74-4.37-12z"/><path class="cls-1" d="M17.23 125L3.11 93.6l50.41-11.49.54 1.47-13.34 38.87zM4.52 94.31L17.85 124 40 121.52l13-37.93-.11-.31z"/><path class="cls-1" d="M30 153.53l-13.2-29.46 24.27-2.67zm-11.72-28.62l11.64 25.9 9.7-28.24z"/><path class="cls-1" d="M31.56 154.45L3.31 126.2V91.63zM4.31 125.79l24.1 24.1-24.1-53.6v29.5zM282.39 151.15l-31.58-35.89 37.09-18.61 5.1 21.91 1.17.13zm-30-35.58L282 149.22l10.81-29.68-.6-.07-5-21.37z"/><path class="cls-1" d="M251.49 116l-12.6-14.32 7-17.77 43 13.33zM240 101.52l11.68 13.28 34.49-17.3-39.69-12.33z"/><path class="cls-1" d="M199.83 86.62l30-29.35L247.07 85zm29.83-27.76l-27.29 26.67 42.94-1.44z"/><path class="cls-1" d="M226.65 128.5l-26.43-42.9 46.71-1.6-6.93 17.52 12.37 14.06zM202 86.55l25 40.65 23.78-11.93-11.92-13.54 6.55-16.63z"/><path class="cls-1" d="M293.86 119.66l-1.62-.18-5.11-21.7-43.92-13.62L306.46 82l.54 1.59zm-.86-1.1h.14l12.75-35-.18-.53L249.17 85 288 97z"/><path class="cls-1" d="M246.29 85.67L229.2 58.12l10.52-31 30.48-2.19zM230.3 58l15.78 25.45L268.7 26l-28.24 2z"/><path class="cls-1" d="M239.38 28.15l4.69-13.82 7.46-7.46 19 19zm5.56-13.28L240.81 27l27.52-2-16.8-16.72zM320.38 122.57l-27.54-3 13.64-37.45zm-26.17-3.88l24.71 2.71-12.46-36.31z"/><path class="cls-1" d="M330.72 152.67H215.39l11.06-25.19 25.28-12.68L282 149.22l11.17-30.65 26.83 2.95zm-113.79-1h112.39l-10-29.22-25.42-2.79-11.47 31.49L251.49 116l-24.26 12.18z"/><path class="cls-1" d="M216.48 152.67h-8.09l-19.86-14.39 12.35-53.5 26.52 43zm-7.76-1h7.11l10.45-23.78-25-40.51-11.66 50.48z"/><path class="cls-1" d="M200.8 87.06l-12.46-56.9L230.55 58zm-11-54.71l11.55 52.73 27.57-27z"/><path class="cls-1" d="M188.59 142.45V26.64l13 59.44v.11zm1-106.57v97.8l11-47.6z"/><path class="cls-1" d="M230 58.83l-42.43-28L240.81 27zm-39.4-27.18l38.89 25.64 9.89-29.13z"/><path class="cls-1" d="M187.79 31.85l28.54-28.54h17.59l11.15 11.15-4.62 13.61zm29-27.54L190.4 30.66l49.33-3.54 4.21-12.39-10.43-10.42h-16.77zM244.92 85.1l39-38.09L307 83zm38.78-36.51L247.46 84l57.76-1.94z"/><path class="cls-1" d="M307.11 83.28L305.8 83l-37-57.56 8.6-8.6 40.3 40.31-5.84 13.07zm-.69-1.18h.05L311 69.82l5.57-12.47-20.7-20.66-11.44 11.18zm-36.33-56.54L283.87 47l11.29-11-17.74-17.76z"/><path class="cls-1" d="M244.86 86.55l24.48-62.15 15.08 23.47zm24.7-60l-22.05 56 35.64-34.84zM357.77 94.83l-51.64-11.77L311 69.64l14.24-7.31zm-50.31-12.49l47.15 10.75-29.54-29.54-13.25 6.8z"/><path class="cls-1" d="M342.77 125l-23.48-2.58-13.35-38.84.54-1.47 50.41 11.49zM320 121.52l22.15 2.48 13.33-29.64-48.37-11-.11.31z"/><path class="cls-1" d="M330 153.53l-11-32.12 24.27 2.67zm-9.57-31l9.7 28.24 11.64-25.9z"/><path class="cls-1" d="M328.44 154.45l28.24-62.82v34.57zm27.24-58.16l-24.1 53.6 24.1-24.1v-29.5z"/><circle class="cls-1" cx="52.67" cy="83.59" r="3.81"/><circle class="cls-1" cx="40.35" cy="121.99" r="3.81"/><circle class="cls-1" cx="17.54" cy="124.49" r="3.81"/><circle class="cls-1" cx="66.47" cy="119.12" r="3.81"/><circle class="cls-1" cx="72.4" cy="97.77" r="3.81"/><circle class="cls-1" cx="113.81" cy="83.59" r="3.81"/><circle class="cls-1" cx="120.78" cy="101.58" r="3.81"/><circle class="cls-1" cx="108.39" cy="116.94" r="3.81"/><circle class="cls-1" cx="133.16" cy="128.3" r="3.81"/><circle class="cls-1" cx="158.9" cy="86.08" r="3.81"/><circle class="cls-1" cx="130.25" cy="58.06" r="3.81"/><circle class="cls-1" cx="119.91" cy="27.6" r="3.81"/><circle class="cls-1" cx="76.21" cy="47.8" r="3.81"/><circle class="cls-1" cx="126.28" cy="3.81" r="3.81"/><circle class="cls-1" cx="143.2" cy="3.81" r="3.81"/><circle class="cls-1" cx="170.91" cy="31.26" r="3.81"/><circle class="cls-1" cx="115.5" cy="14.6" r="3.81"/><circle class="cls-1" cx="109.04" cy="7.63" r="3.81"/><circle class="cls-1" cx="90.55" cy="25.49" r="3.81"/><circle class="cls-1" cx="82.58" cy="17.53" r="3.81"/><circle class="cls-1" cx="42.88" cy="57.24" r="3.81"/><circle class="cls-1" cx="48.58" cy="69.99" r="3.81"/><circle class="cls-1" cx="34.83" cy="62.94" r="3.81"/><circle class="cls-1" cx="29.98" cy="152.17" r="3.81"/><circle class="cls-1" cx="152.03" cy="152.17" r="3.81"/><circle class="cls-1" cx="170.91" cy="138.06" r="3.81"/><circle class="cls-1" cx="307.33" cy="83.59" r="3.81"/><circle class="cls-1" cx="319.65" cy="121.99" r="3.81"/><circle class="cls-1" cx="342.46" cy="124.49" r="3.81"/><circle class="cls-1" cx="293.53" cy="119.12" r="3.81"/><circle class="cls-1" cx="287.6" cy="97.77" r="3.81"/><circle class="cls-1" cx="246.19" cy="83.59" r="3.81"/><circle class="cls-1" cx="239.22" cy="101.58" r="3.81"/><circle class="cls-1" cx="251.61" cy="116.94" r="3.81"/><circle class="cls-1" cx="226.84" cy="128.3" r="3.81"/><circle class="cls-1" cx="201.1" cy="86.08" r="3.81"/><circle class="cls-1" cx="229.75" cy="58.06" r="3.81"/><circle class="cls-1" cx="240.09" cy="27.6" r="3.81"/><circle class="cls-1" cx="283.79" cy="47.8" r="3.81"/><circle class="cls-1" cx="233.72" cy="3.81" r="3.81"/><circle class="cls-1" cx="216.8" cy="3.81" r="3.81"/><circle class="cls-1" cx="189.09" cy="31.26" r="3.81"/><circle class="cls-1" cx="244.5" cy="14.6" r="3.81"/><circle class="cls-1" cx="250.96" cy="7.63" r="3.81"/><circle class="cls-1" cx="269.45" cy="25.49" r="3.81"/><circle class="cls-1" cx="277.42" cy="17.53" r="3.81"/><circle class="cls-1" cx="317.12" cy="57.24" r="3.81"/><circle class="cls-1" cx="311.42" cy="69.99" r="3.81"/><circle class="cls-1" cx="325.17" cy="62.94" r="3.81"/><circle class="cls-1" cx="356.19" cy="93.96" r="3.81"/><circle class="cls-1" cx="356.19" cy="126" r="3.81"/><circle class="cls-1" cx="3.81" cy="93.96" r="3.81"/><circle class="cls-1" cx="3.81" cy="126" r="3.81"/><circle class="cls-1" cx="330.02" cy="152.17" r="3.81"/><circle class="cls-1" cx="207.97" cy="152.17" r="3.81"/><circle class="cls-1" cx="189.09" cy="138.06" r="3.81"/></svg>