<svg id="Capa_1" data-name="Capa 1" xmlns="http://www.w3.org/2000/svg" viewBox="0 0 595.26 512.44"><defs><style>.cls-1{fill:#878787;}.cls-2{fill:#3c3c3b;}.cls-3,.cls-4{fill:none;stroke:#3c3c3b;stroke-miterlimit:10;}.cls-3{stroke-width:0.99px;}.cls-4{stroke-width:1.03px;stroke-dasharray:5.16;}.cls-5{fill:#1d1d1b;}.cls-6{fill:#706f6f;}</style></defs><title>ciclo-peticion</title><circle class="cls-1" cx="182.62" cy="391.45" r="23.77" transform="rotate(-70.55 182.607 391.45)"/><circle class="cls-1" cx="325.17" cy="403.47" r="23.77" transform="rotate(-45 325.164 403.473)"/><circle class="cls-1" cx="217.67" cy="149.16" r="23.77" transform="rotate(-29.87 217.648 149.152)"/><circle class="cls-2" cx="186.03" cy="400.83" r="2.35" transform="rotate(-70.55 186.02 400.823)"/><circle class="cls-2" cx="189.55" cy="390.86" r="2.35" transform="rotate(-70.55 189.537 390.86)"/><circle class="cls-2" cx="198.49" cy="385.23" r="2.35" transform="rotate(-70.55 198.485 385.226)"/><path class="cls-2" d="M182.64 415.86a24.42 24.42 0 0 1-8.14-1.4 24.23 24.23 0 1 1 8.14 1.4zm0-47.56a23.15 23.15 0 0 0-7.73 45 23.15 23.15 0 1 0 7.73-45z"/><circle class="cls-2" cx="183.53" cy="383.09" r="2.35" transform="rotate(-70.55 183.52 383.083)"/><circle class="cls-2" cx="173.08" cy="391.99" r="2.35" transform="rotate(-70.55 173.077 391.985)"/><circle class="cls-2" cx="176.1" cy="404.14" r="2.35" transform="rotate(-70.55 176.092 404.14)"/><circle class="cls-2" cx="171.8" cy="378.29" r="2.35" transform="rotate(-70.55 171.79 378.285)"/><path class="cls-2" d="M176.25 404.61l-.31-.94 9.54-3.19-1.24-8.79-12.65 1 12.3-10.52 1.2 8.51 4.44-.33.07 1-4.38.33 1.34 9.55zm6.92-20.61l-8.63 7.38 9.57-.72z"/><path class="cls-2" d="M182.58 429.75a38.3 38.3 0 1 1 36.15-25.55 38.12 38.12 0 0 1-36.15 25.55zm0-76.11a37.89 37.89 0 1 0 12.61 2.18 37.66 37.66 0 0 0-12.6-2.18z"/><path class="cls-2" d="M182.66 445a53.65 53.65 0 1 1 23.06-5.26 53.6 53.6 0 0 1-23.06 5.26zm-.08-106.65a53.19 53.19 0 1 0 17.7 3.06 52.85 52.85 0 0 0-17.7-3.03z"/><path class="cls-2" d="M183.476 383.603l.14-.98 14.957 2.142-.14.98zM171.383 378.547l.837-.53 14.233 22.532-.837.528z"/><circle class="cls-2" cx="335.09" cy="404.44" r="2.35" transform="rotate(-45 335.09 404.43)"/><circle class="cls-2" cx="327.62" cy="396.96" r="2.35" transform="rotate(-45 327.62 396.966)"/><circle class="cls-2" cx="326.4" cy="386.46" r="2.35" transform="rotate(-45 326.398 386.462)"/><path class="cls-2" d="M325.17 427.86a24.39 24.39 0 1 1 17.25-7.14 24.23 24.23 0 0 1-17.25 7.14zm0-47.53a23.15 23.15 0 1 0 16.37 39.51 23.14 23.14 0 0 0-16.37-39.51z"/><circle class="cls-2" cx="318.01" cy="399.04" r="2.35" transform="rotate(-45 318.007 399.037)"/><circle class="cls-2" cx="321.54" cy="412.31" r="2.35" transform="rotate(-45 321.545 412.312)"/><circle class="cls-2" cx="333.8" cy="414.83" r="2.35" transform="rotate(-45 333.797 414.827)"/><circle class="cls-2" cx="308.63" cy="407.56" r="2.35" transform="rotate(-45 308.624 407.554)"/><path class="cls-2" d="M334.29 414.89l-1-.12 1.24-10-8.47-2.68-4.6 11.82-4.19-15.64 8.2 2.59 1.61-4.15.92.36-1.59 4.09 9.19 2.91zm-15.57-15.11l2.94 11 3.48-8.94z"/><path class="cls-2" d="M325.17 441.75a38.28 38.28 0 1 1 27.08-11.2 38.18 38.18 0 0 1-27.08 11.2zm0-76.05a37.77 37.77 0 1 0 26.72 11.05 37.67 37.67 0 0 0-26.72-11.05z"/><path class="cls-2" d="M325.17 457A53.53 53.53 0 1 1 363 441.34 53.38 53.38 0 0 1 325.17 457zm0-106.55A53 53 0 1 0 362.68 366a52.88 52.88 0 0 0-37.51-15.55z"/><path class="cls-2" d="M317.612 398.796l8.386-12.57.823.55-8.385 12.57zM308.563 407.065l26.465-3.132.116.983-26.465 3.133z"/><circle class="cls-1" cx="149.09" cy="269.54" r="23.77"/><path class="cls-2" d="M149.09 293.93a24.39 24.39 0 1 1 24.39-24.39 24.42 24.42 0 0 1-24.39 24.39zm0-47.54a23.15 23.15 0 1 0 23.15 23.15 23.18 23.18 0 0 0-23.15-23.15z"/><circle class="cls-2" cx="137.93" cy="256.65" r="2.35"/><path class="cls-2" d="M149.09 307.84a38.3 38.3 0 1 1 38.3-38.3 38.34 38.34 0 0 1-38.3 38.3zm0-76.09a37.79 37.79 0 1 0 37.79 37.79 37.83 37.83 0 0 0-37.79-37.79z"/><path class="cls-2" d="M149.09 323.09a53.55 53.55 0 1 1 53.55-53.55 53.61 53.61 0 0 1-53.55 53.55zm0-106.6a53 53 0 1 0 53 53 53.11 53.11 0 0 0-53-52.99z"/><path class="cls-2" d="M137.427 256.757l.97-.194 2.962 14.817-.972.194z"/><circle class="cls-2" cx="140.9" cy="271.47" r="2.35"/><circle class="cls-2" cx="152.77" cy="278.36" r="2.35"/><circle class="cls-2" cx="156.79" cy="263.21" r="2.35"/><circle class="cls-2" cx="163.23" cy="271.47" r="2.35"/><circle class="cls-2" cx="146.22" cy="263.21" r="2.35"/><circle class="cls-2" cx="140.28" cy="284.13" r="2.35"/><path class="cls-3" d="M146.15 263.21l6.67 15.15-11.92-6.89 15.89-8.26 6.44 8.26M140.28 284.13l16.51-20.92"/><circle class="cls-1" cx="311.03" cy="258.01" r="23.77" transform="rotate(-33.53 311.017 258.003)"/><path class="cls-2" d="M311.07 282.39a24.38 24.38 0 1 1 13.43-4.05 24.39 24.39 0 0 1-13.43 4.05zm-.07-47.53a23.15 23.15 0 1 0 19.34 10.36A23.15 23.15 0 0 0 311 234.86z"/><circle class="cls-2" cx="305.26" cy="264.14" r="2.35" transform="matrix(.83 -.55 .55 .83 -95.1 212.56)"/><circle class="cls-2" cx="318.97" cy="263.32" r="2.35" transform="rotate(-33.53 318.96 263.31)"/><circle class="cls-2" cx="313.95" cy="248.47" r="2.35" transform="rotate(-33.53 313.93 248.47)"/><circle class="cls-2" cx="323.88" cy="251.8" r="2.35" transform="rotate(-33.53 323.86 251.79)"/><circle class="cls-2" cx="305.14" cy="254.31" r="2.35" transform="rotate(-33.53 305.12 254.31)"/><circle class="cls-2" cx="294.61" cy="253.42" r="2.35" transform="rotate(-33.53 294.58 253.41)"/><circle class="cls-2" cx="311.75" cy="275.03" r="2.35" transform="rotate(-33.53 311.74 275.02)"/><path class="cls-2" d="M304.39 264.69l4.17-7.52-3.75-2.41.54-.83 3.65 2.37 4.68-8.43 10.32 3.46-.32.94-9.54-3.2-4.31 7.77 10.68 6.85zm5-7l-3.26 5.88 11.34-.7z"/><path class="cls-2" d="M311.09 296.29a38.27 38.27 0 1 1 21.1-6.36 38.29 38.29 0 0 1-21.1 6.36zM311 220.2a37.91 37.91 0 1 0 7.59.77 38.17 38.17 0 0 0-7.59-.77z"/><path class="cls-2" d="M311.14 311.58a54.06 54.06 0 0 1-10.76-1.09 53.28 53.28 0 1 1 10.76 1.09zm-.22-106.63a53.21 53.21 0 1 0 10.66 1.05 53.55 53.55 0 0 0-10.66-1.05z"/><path class="cls-2" d="M294.255 253.8l.702-.7 10.653 10.717-.702.698zM311.257 274.993l2.202-26.558.986.08-2.202 26.56z"/><circle class="cls-2" cx="214.15" cy="158.49" r="2.35" transform="rotate(-29.87 214.14 158.48)"/><circle class="cls-2" cx="223.31" cy="153.23" r="2.35" transform="rotate(-29.87 223.31 153.23)"/><circle class="cls-2" cx="233.77" cy="154.78" r="2.35" transform="rotate(-29.87 233.76 154.78)"/><path class="cls-2" d="M194.13 142.79a24.39 24.39 0 1 1 2.39 18.51 24.23 24.23 0 0 1-2.39-18.51zM240 155.2a23.15 23.15 0 1 0-42.42 5.49A23.14 23.14 0 0 0 240 155.2z"/><circle class="cls-2" cx="223.82" cy="143.41" r="2.35" transform="rotate(-29.87 223.8 143.4)"/><circle class="cls-2" cx="210.09" cy="143.35" r="2.35" transform="rotate(-29.87 210.08 143.34)"/><circle class="cls-2" cx="204.46" cy="154.53" r="2.35" transform="rotate(-29.87 204.45 154.53)"/><circle class="cls-2" cx="218.04" cy="132.12" r="2.35" transform="rotate(-29.87 218.03 132.13)"/><path class="cls-2" d="M204.27 155l.37-.92 9.31 3.8 4.79-7.47-10.22-7.52h16.19l-4.64 7.24 3.58 2.64-.59.8-3.53-2.6-5.2 8.12zm18.65-11.09h-11.36l7.73 5.69z"/><path class="cls-2" d="M180.72 139.17a38.28 38.28 0 1 1 3.74 29.06 38.18 38.18 0 0 1-3.74-29.06zM254.14 159a37.77 37.77 0 1 0-17.64 22.91A37.67 37.67 0 0 0 254.14 159z"/><path class="cls-2" d="M166 135.19a53.53 53.53 0 1 1 5.23 40.64 53.38 53.38 0 0 1-5.23-40.64zM268.85 163a53 53 0 1 0-24.77 32.16A52.88 52.88 0 0 0 268.85 163z"/><path class="cls-2" d="M223.448 143.743l.745-.652 9.945 11.377-.745.652zM213.655 158.41l3.884-26.366.978.144-3.883 26.365z"/><circle class="cls-1" cx="388.39" cy="145.31" r="23.77" transform="rotate(-18.4 388.32 145.29)"/><path class="cls-2" d="M364.84 139a24.38 24.38 0 1 1 .4 14 24.39 24.39 0 0 1-.4-14zm45.9 12.34a23.15 23.15 0 1 0-15 16 23.15 23.15 0 0 0 15-16.03z"/><circle class="cls-2" cx="383.97" cy="138.14" r="2.35" transform="rotate(-18.4 383.9 138.12)"/><circle class="cls-2" cx="381.19" cy="151.58" r="2.35" transform="rotate(-18.4 381.12 151.57)"/><circle class="cls-2" cx="396.83" cy="150.61" r="2.35" transform="rotate(-18.4 396.77 150.59)"/><circle class="cls-2" cx="391.02" cy="159.33" r="2.35" transform="rotate(-18.4 390.96 159.31)"/><circle class="cls-2" cx="393.49" cy="140.59" r="2.35" transform="rotate(-18.4 393.42 140.58)"/><circle class="cls-2" cx="397.1" cy="130.65" r="2.35" transform="rotate(-18.2 392.69 126.8)"/><circle class="cls-2" cx="371.76" cy="141.55" r="2.35" transform="rotate(-18.4 371.69 141.53)"/><path class="cls-2" d="M383.67 137.15l6.17 6 3.3-3 .66.73-3.25 2.95 6.92 6.71-6 9.06-.82-.55 5.58-8.37-6.37-6.18-9.4 8.52zm5.43 6.65l-4.83-4.69-2.27 11.14z"/><path class="cls-2" d="M351.41 135.37a38.27 38.27 0 1 1 .63 22 38.29 38.29 0 0 1-.63-22zm73.49 19.73a37.91 37.91 0 1 0-2.72 7.13 38.17 38.17 0 0 0 2.72-7.13z"/><path class="cls-2" d="M336.65 131.43a54.06 54.06 0 0 1 3.86-10.1 53.28 53.28 0 1 1-3.86 10.1zm103 27.62a53.21 53.21 0 1 0-3.82 10 53.55 53.55 0 0 0 3.81-10z"/><path class="cls-2" d="M383.73 137.73l13.125-7.487.49.86-13.124 7.486zM371.585 142.012l.336-.93 25.065 9.057-.337.93z"/><circle class="cls-1" cx="441.96" cy="306.67" r="23.77" transform="rotate(-18.4 441.86 306.64)"/><path class="cls-2" d="M418.42 300.34a24.38 24.38 0 1 1 .4 14 24.39 24.39 0 0 1-.4-14zm45.9 12.34a23.15 23.15 0 1 0-15 16 23.15 23.15 0 0 0 15-16.01z"/><circle class="cls-2" cx="437.55" cy="299.5" r="2.35" transform="rotate(-18.2 433.56 293.24)"/><circle class="cls-2" cx="434.76" cy="312.94" r="2.35" transform="rotate(-18.4 434.67 312.89)"/><circle class="cls-2" cx="450.41" cy="311.97" r="2.35" transform="rotate(-18.4 450.32 311.94)"/><circle class="cls-2" cx="444.6" cy="320.69" r="2.35" transform="rotate(-18.4 444.5 320.66)"/><circle class="cls-2" cx="447.07" cy="301.95" r="2.35" transform="rotate(-18.4 447 301.89)"/><circle class="cls-2" cx="450.68" cy="292.01" r="2.35" transform="rotate(-18.4 450.61 291.96)"/><circle class="cls-2" cx="425.34" cy="302.91" r="2.35" transform="rotate(-18.4 425.27 302.87)"/><path class="cls-2" d="M437.25 298.51l6.17 6 3.3-3 .66.73-3.25 2.95 6.92 6.71L445 321l-.82-.55 5.58-8.37-6.37-6.18-9.4 8.52zm5.43 6.65l-4.83-4.69-2.29 11.13z"/><path class="cls-2" d="M405 296.73a38.27 38.27 0 1 1 .63 22 38.29 38.29 0 0 1-.63-22zm73.49 19.73a37.91 37.91 0 1 0-2.72 7.13 38.17 38.17 0 0 0 2.71-7.13z"/><path class="cls-2" d="M390.22 292.79a54.06 54.06 0 0 1 3.86-10.1 53.28 53.28 0 1 1-3.86 10.1zm103 27.62a53.21 53.21 0 1 0-3.82 10 53.55 53.55 0 0 0 3.81-10z"/><path class="cls-2" d="M437.31 299.095l13.124-7.487.49.86-13.125 7.487zM425.17 303.366l.336-.93 25.064 9.057-.337.93z"/><circle class="cls-4" cx="295.04" cy="274.36" r="237.56"/><path class="cls-4" d="M20 107.25v167.11h37.48M570.09 441.47V274.36h-37.48"/><path class="cls-2" d="M40 45.7a18.57 18.57 0 0 0-12.5-17.48 15.11 15.11 0 1 0-15 0A18.57 18.57 0 0 0 0 45.7l1.59 13.71s2.41.7 6.13 1.35c.47 4 1.17 9.35 1.93 12.52a126 126 0 0 0 4.73 14h11.23a126 126 0 0 0 4.73-14c.76-3.17 1.46-8.48 1.93-12.52 3.74-.65 6.13-1.35 6.13-1.35zM539.88 469.43h38.38v38.38h-38.38z"/><path class="cls-5" d="M595.26 492.43l-17 15.38v-38.38l17-15.39v38.39z"/><path class="cls-6" d="M578.26 469.43h-38.38l17-15.39h38.38l-17 15.39z"/></svg>