<svg id="Capa_1" data-name="Capa 1" xmlns="http://www.w3.org/2000/svg" viewBox="0 0 341.02 306.95"><defs><style>.cls-1{fill:#575756;}.cls-2{fill:#3c3c3b;}</style></defs><title>circulos-bikas</title><circle class="cls-1" cx="57.3" cy="270.54" r="23.77" transform="rotate(-70.55 57.3 270.54)"/><circle class="cls-1" cx="199.85" cy="282.56" r="23.77" transform="rotate(-45 199.85 282.55)"/><circle class="cls-1" cx="185.71" cy="137.09" r="23.77" transform="rotate(-33.53 185.71 137.09)"/><circle class="cls-1" cx="92.35" cy="28.24" r="23.77" transform="rotate(-29.87 92.34 28.24)"/><circle class="cls-2" cx="60.71" cy="279.91" r="2.35" transform="rotate(-70.55 60.7 279.9)"/><circle class="cls-2" cx="64.23" cy="269.95" r="2.35" transform="rotate(-70.55 64.22 269.94)"/><circle class="cls-2" cx="73.17" cy="264.31" r="2.35" transform="matrix(.33 -.94 .94 .33 -200.42 245.29)"/><path class="cls-2" d="M57.32 294.94a24.42 24.42 0 0 1-8.14-1.4 24.23 24.23 0 1 1 8.14 1.4zm0-47.56a23.15 23.15 0 0 0-7.73 45 23.15 23.15 0 1 0 7.73-44.99z"/><circle class="cls-2" cx="58.21" cy="262.17" r="2.35" transform="rotate(-70.55 58.21 262.17)"/><circle class="cls-2" cx="47.76" cy="271.08" r="2.35" transform="rotate(-70.55 47.76 271.07)"/><circle class="cls-2" cx="50.78" cy="283.23" r="2.35" transform="rotate(-70.55 50.77 283.22)"/><circle class="cls-2" cx="46.48" cy="257.38" r="2.35" transform="rotate(-70.55 46.47 257.37)"/><path class="cls-2" d="M50.93 283.7l-.31-.94 9.54-3.19-1.24-8.79-12.65 1 12.3-10.52 1.2 8.51 4.44-.33.07 1-4.38.33 1.34 9.55zm6.92-20.56l-8.63 7.38 9.57-.72z"/><path class="cls-2" d="M58.15 262.676l.14-.98 14.958 2.142-.14.98zM46.06 257.64l.836-.527 14.232 22.53-.837.53z"/><circle class="cls-2" cx="209.77" cy="283.52" r="2.35" transform="rotate(-45 209.77 283.52)"/><circle class="cls-2" cx="202.3" cy="276.05" r="2.35" transform="rotate(-45 202.3 276.04)"/><circle class="cls-2" cx="201.08" cy="265.55" r="2.35" transform="rotate(-45 201.07 265.55)"/><path class="cls-2" d="M199.85 306.95a24.39 24.39 0 1 1 17.25-7.14 24.23 24.23 0 0 1-17.25 7.14zm0-47.53a23.15 23.15 0 1 0 16.37 39.51 23.14 23.14 0 0 0-16.37-39.51z"/><circle class="cls-2" cx="192.69" cy="278.12" r="2.35" transform="rotate(-45 192.69 278.12)"/><circle class="cls-2" cx="196.22" cy="291.39" r="2.35" transform="rotate(-45 196.23 291.39)"/><circle class="cls-2" cx="208.48" cy="293.91" r="2.35" transform="rotate(-45 208.48 293.9)"/><circle class="cls-2" cx="183.31" cy="286.65" r="2.35" transform="rotate(-45 183.3 286.64)"/><path class="cls-2" d="M209 294l-1-.12 1.24-10-8.47-2.68-4.6 11.8-4.17-15.62 8.2 2.59 1.61-4.15.92.36-1.59 4.09 9.19 2.91zm-15.6-15.13l2.94 11 3.48-8.94z"/><path class="cls-2" d="M192.282 277.865l8.386-12.57.824.55-8.386 12.57zM183.25 286.163l26.465-3.132.117.984-26.466 3.132zM185.75 161.48a24.38 24.38 0 1 1 13.43-4.05 24.39 24.39 0 0 1-13.43 4.05zm-.07-47.53A23.15 23.15 0 1 0 205 124.31a23.15 23.15 0 0 0-19.32-10.36z"/><circle class="cls-2" cx="179.94" cy="143.22" r="2.35" transform="rotate(-33.53 179.93 143.22)"/><circle class="cls-2" cx="193.65" cy="142.41" r="2.35" transform="rotate(-33.53 193.64 142.41)"/><circle class="cls-2" cx="188.63" cy="127.56" r="2.35" transform="rotate(-33.53 188.63 127.56)"/><circle class="cls-2" cx="198.56" cy="130.89" r="2.35" transform="rotate(-33.53 198.54 130.89)"/><circle class="cls-2" cx="179.82" cy="133.4" r="2.35" transform="rotate(-33.53 179.81 133.39)"/><circle class="cls-2" cx="169.29" cy="132.51" r="2.35" transform="rotate(-33.53 169.27 132.5)"/><circle class="cls-2" cx="186.43" cy="154.12" r="2.35" transform="rotate(-33.53 186.42 154.12)"/><path class="cls-2" d="M179.07 143.77l4.17-7.52-3.75-2.41.51-.84 3.69 2.37 4.71-8.37 10.32 3.46-.32.94-9.54-3.2-4.31 7.77 10.68 6.85zm5-7l-3.26 5.88 11.34-.7z"/><path class="cls-2" d="M168.935 132.88l.703-.697L180.29 142.9l-.702.697zM185.935 154.083l2.202-26.56.987.083-2.202 26.558z"/><circle class="cls-2" cx="88.83" cy="37.57" r="2.35" transform="rotate(-29.87 88.83 37.57)"/><circle class="cls-2" cx="97.99" cy="32.31" r="2.35" transform="rotate(-29.87 97.98 32.32)"/><circle class="cls-2" cx="108.45" cy="33.87" r="2.35" transform="rotate(-29.87 108.45 33.87)"/><path class="cls-2" d="M68.81 21.88a24.39 24.39 0 1 1 2.39 18.51 24.23 24.23 0 0 1-2.39-18.51zm45.88 12.41a23.15 23.15 0 1 0-42.42 5.49 23.14 23.14 0 0 0 42.42-5.5z"/><circle class="cls-2" cx="98.5" cy="22.5" r="2.35" transform="rotate(-29.87 98.49 22.5)"/><circle class="cls-2" cx="84.77" cy="22.44" r="2.35" transform="rotate(-29.87 84.77 22.43)"/><circle class="cls-2" cx="79.14" cy="33.62" r="2.35" transform="rotate(-29.87 79.14 33.62)"/><circle class="cls-2" cx="92.72" cy="11.21" r="2.35" transform="rotate(-29.87 92.72 11.22)"/><path class="cls-2" d="M78.95 34.07l.37-.92L88.64 37l4.79-7.47L83.21 22H99.4l-4.64 7.24 3.58 2.64-.59.8-3.53-2.6L89 38.19zM97.6 23H86.24L94 28.65z"/><path class="cls-2" d="M98.13 22.824l.744-.652 9.945 11.376-.746.652zM88.342 37.5l3.884-26.365.98.144-3.884 26.364z"/><circle class="cls-1" cx="316.64" cy="185.15" r="23.77" transform="rotate(-51.99 316.66 185.15)"/><path class="cls-2" d="M293.53 192.91a24.38 24.38 0 1 1 8.1 11.46 24.39 24.39 0 0 1-8.1-11.46zm45.06-15.12a23.15 23.15 0 1 0-3.7 21.62 23.15 23.15 0 0 0 3.7-21.62z"/><circle class="cls-2" cx="309" cy="181.62" r="2.35" transform="rotate(-51.99 309.01 181.62)"/><circle class="cls-2" cx="314.12" cy="194.36" r="2.35" transform="rotate(-51.99 314.13 194.36)"/><circle class="cls-2" cx="326.61" cy="184.9" r="2.35" transform="rotate(-51.99 326.63 184.9)"/><circle class="cls-2" cx="326.6" cy="195.37" r="2.35" transform="rotate(-51.99 326.61 195.37)"/><circle class="cls-2" cx="318.29" cy="178.39" r="2.35" transform="rotate(-51.99 318.3 178.39)"/><circle class="cls-2" cx="315.79" cy="168.12" r="2.35" transform="rotate(-51.99 315.81 168.12)"/><circle class="cls-2" cx="300.72" cy="191.22" r="2.35" transform="rotate(-51.99 300.74 191.22)"/><path class="cls-2" d="M308.2 181l8.45 1.57 1.1-4.32 1 .24-1.08 4.25 9.48 1.76v10.88h-1v-10.06l-8.73-1.63-3.15 12.31zm8.21 2.53l-6.61-1.23 4.25 10.53z"/><path class="cls-2" d="M308.548 181.392l6.79-13.498.883.444-6.788 13.5zM300.595 190.754l25.89-6.32.235.96-25.89 6.322z"/><circle class="cls-1" cx="24.38" cy="149.24" r="23.77" transform="rotate(-51.99 24.38 149.24)"/><path class="cls-2" d="M1.26 157a24.38 24.38 0 1 1 8.1 11.46A24.39 24.39 0 0 1 1.26 157zm45.06-15.12a23.15 23.15 0 1 0-3.7 21.62 23.15 23.15 0 0 0 3.7-21.63z"/><circle class="cls-2" cx="16.74" cy="145.71" r="2.35" transform="rotate(-51.99 16.73 145.72)"/><circle class="cls-2" cx="21.86" cy="158.45" r="2.35" transform="rotate(-51.99 21.86 158.46)"/><circle class="cls-2" cx="34.35" cy="148.99" r="2.35" transform="rotate(-51.99 34.35 148.99)"/><circle class="cls-2" cx="34.33" cy="159.46" r="2.35" transform="rotate(-51.99 34.34 159.46)"/><circle class="cls-2" cx="26.02" cy="142.48" r="2.35" transform="rotate(-51.99 26.03 142.48)"/><circle class="cls-2" cx="23.53" cy="132.21" r="2.35" transform="rotate(-51.99 23.54 132.21)"/><circle class="cls-2" cx="8.46" cy="155.31" r="2.35" transform="rotate(-51.99 8.46 155.31)"/><path class="cls-2" d="M15.94 145.06l8.45 1.57 1.1-4.32 1 .24-1.08 4.25 9.48 1.76v10.88h-1v-10.06l-8.73-1.63L22 160.07zm8.21 2.53l-6.61-1.23 4.25 10.53z"/><path class="cls-2" d="M16.3 145.474l6.788-13.5.884.446-6.79 13.5zM8.337 154.826l25.89-6.32.235.96-25.89 6.322z"/><circle class="cls-1" cx="263.68" cy="24.39" r="23.77" transform="rotate(-16.57 263.61 24.39)"/><path class="cls-2" d="M240.35 17.31a24.38 24.38 0 1 1 0 14 24.39 24.39 0 0 1 0-14zm45.48 13.8a23.15 23.15 0 1 0-15.55 15.47 23.15 23.15 0 0 0 15.55-15.47z"/><circle class="cls-2" cx="259.5" cy="17.09" r="2.35" transform="rotate(-16.57 259.44 17.09)"/><circle class="cls-2" cx="256.28" cy="30.43" r="2.35" transform="rotate(-16.57 256.24 30.44)"/><circle class="cls-2" cx="271.95" cy="29.97" r="2.35" transform="rotate(-16.57 271.87 29.98)"/><circle class="cls-2" cx="265.87" cy="38.49" r="2.35" transform="rotate(-16.57 265.8 38.49)"/><circle class="cls-2" cx="268.94" cy="19.84" r="2.35" transform="rotate(-16.57 268.86 19.83)"/><circle class="cls-2" cx="272.86" cy="10.02" r="2.35" transform="rotate(-16.57 272.82 10.03)"/><circle class="cls-2" cx="247.19" cy="20.11" r="2.35" transform="rotate(-16.57 247.12 20.1)"/><path class="cls-2" d="M259.23 16.09l6 6.18 3.39-2.88.64.76-3.37 2.85 6.7 6.93-6.32 8.86-.81-.58 5.85-8.21-6.17-6.39-9.67 8.21zm5.22 6.82l-4.68-4.84-2.64 11z"/><path class="cls-2" d="M259.268 16.66l13.357-7.065.463.876-13.357 7.064zM246.99 20.57l.366-.92 24.762 9.853-.366.92z"/></svg>