<svg id="Capa_1" data-name="Capa 1" xmlns="http://www.w3.org/2000/svg" viewBox="0 0 730.42 560.18"><defs><style>.cls-1{fill:#c6c6c6;}.cls-2{fill:#3c3c3b;}</style></defs><title>landing-animacion</title><rect class="cls-1" x="508.44" y="394.54" width="218.58" height="117.99" rx="2.92" ry="2.92"/><path class="cls-2" d="M618.69 425.21h87.59v3.2h-87.59zM618.69 437.88h87.59v3.2h-87.59zM618.69 450.54h59.35v3.2h-59.35zM618.69 469.07h87.59v3.2h-87.59zM618.69 481.87h78.93v3.2h-78.93zM559.63 427.29h11.23v4.91h3.51v-4.91a3.44 3.44 0 0 0-3.51-3.51h-11.23a3.44 3.44 0 0 0-3.51 3.51v4.91h3.51v-4.91zM559.63 446.24v12.64h11.23v-12.64h-11.23z"/><path class="cls-2" d="M596.84 433.61h-63.19a3.44 3.44 0 0 0-3.51 3.51v11.94h26v-5.88h18.25v5.88h26v-11.94a3.44 3.44 0 0 0-3.55-3.51zM574.37 452.56v8.87h-18.25v-8.87h-26v28.08a3.44 3.44 0 0 0 3.51 3.51h63.19a3.44 3.44 0 0 0 3.51-3.51v-28.08h-26z"/></svg>