<svg id="Capa_1" data-name="Capa 1" xmlns="http://www.w3.org/2000/svg" viewBox="0 0 730.42 560.18"><defs><style>.cls-1{fill:#b2b2b2;}.cls-2{fill:#3c3c3b;}.cls-3,.cls-4{fill:none;stroke:#3c3c3b;stroke-miterlimit:10;}.cls-3{stroke-width:1.22px;}.cls-4{stroke-width:0.86px;}</style></defs><title>landing-animacion</title><rect class="cls-1" x="258.85" y="388.57" width="212.42" height="114.67" rx="2.84" ry="2.84"/><path class="cls-2" d="M293.37 455.46a2.59 2.59 0 0 1-1.19 2c6.67 3.25 12.54 4.38 19.8 2.93A39.92 39.92 0 0 0 333.36 449c5.13-5.42 12.5-21 3.54-26.74-2-1.31-4.44-1.47-6.19-3.24a8.43 8.43 0 0 1-2-3.18c-.34-1-.17-1.91-1.16-2.54 1 2.72-.63 4.16-2.79 5.54 2.64.34 3.31 1.19 4.71 2.93 4.84 5.62 4.74 12.26.76 18.13-6.41 9.47-17.62 13.18-28.27 14.32-2.09.22-4.15 0-6.22.33a3.74 3.74 0 0 0-2.37.91z"/><path class="cls-2" d="M294.11 456.88a22.82 22.82 0 0 0 7.83 2.63c-1-.36-2.64-.63-3.26-1.31h.25c-.78-1.28-1.24-.35-1.91-.5-1.02-.21-1.88-.7-2.91-.82zM294.88 455.4a8 8 0 0 0 3.73.09c-1.08-.36-2.75-.72-3.73-.09zM327.14 413.91c.49 2.36-1.51 3.77-3.34 4.8.06-1.32-.72-7.76 0-8.45 1.83-1.9 3.2 2.59 3.34 3.65zM291.74 452.74c-1.44.84-2.64 2.63-1.28 4.13a3.39 3.39 0 0 0 1.28-4.13zM327.14 420.12c3.15 8.28-.24 19.43-7.47 24.25-4.08 2.72-9 4-13.77 5a62.27 62.27 0 0 0-7.13 1.54c-2 .67-4 1.76-6.2 1.57a10.06 10.06 0 0 1 .11 1.71c.48-1.46 3.55-.69 5.11-.94 2.84-.46 5.66-.66 8.5-1.06A34.53 34.53 0 0 0 323 445c6.66-5.48 11.54-14.17 6.29-22.33a13.27 13.27 0 0 1-2.15-2.55z"/><path class="cls-2" d="M328 422.68c.09.21.07.15 0 0z"/><circle class="cls-3" cx="315.06" cy="438.88" r="41.03"/><path class="cls-2" d="M375.43 478.99v-2.28l5.33-4.85 3.5 2.7 1.96-1.29 2.52 2.46v3.26h-13.31z"/><circle class="cls-3" cx="382.12" cy="476.64" r="10.11"/><path class="cls-2" d="M428.92 463.85c.72.24 6.65 1.32 15-.28l5.22-.19-1.22 2H444v-.51a47.06 47.06 0 0 1-10.18.69c-4.98-.31-4.9-1.71-4.9-1.71zM439.1 457.09s1.46-1.28 1.87-1.07c0 0-.22 0-.17.76a2.26 2.26 0 0 0-1.7.31zM448.25 457.49a6 6 0 0 0-.43-.78c-3.45 2.48-4.87.89-6.94.49s-3.57 1.62-5.12 3.09a3.2 3.2 0 0 1-.91.58c.3.23.53.58 0 .92l-.2.13-.08.07a.81.81 0 0 0 .21 1.47h.17a62.49 62.49 0 0 0 8.63-.8 8.22 8.22 0 0 1 4.67-5.17zM435.81 461a.21.21 0 1 1 .21-.21.21.21 0 0 1-.21.21zm.77-.68a.21.21 0 1 1 .21-.21.21.21 0 0 1-.21.19zm.72-.63a.21.21 0 1 1 .21-.21.21.21 0 0 1-.21.19zm.7-.69a.21.21 0 1 1 .21-.21.21.21 0 0 1-.21.21zm.75-.63a.21.21 0 1 1 .21-.21.21.21 0 0 1-.18.26z"/><path class="cls-2" d="M434.29 461.93l.08-.06.11-.08c.55-.33.36-.66.08-.9l-.36.14h-.09c-1.74.56-4.05.42-4.79.6a1.19 1.19 0 0 0-.85 1.3 27.21 27.21 0 0 0 6 .5.82.82 0 0 1-.18-1.5zM448.85 458.26v-.22a8.24 8.24 0 0 0-4.66 5.07h.62l4.7-.25a8.74 8.74 0 0 0-.66-4.6z"/><circle class="cls-4" cx="439.75" cy="461.2" r="14.81"/><path class="cls-2" d="M393.51 422.06a.39.39 0 0 1-.33-.18 7.45 7.45 0 0 0-.66-.86c-5.32 4-7 7.58-7.46 9a3.16 3.16 0 0 0 2 1.36c3.19 1 9.28.3 14.73-2.9 7.2-4.23 10.23-11.35 9.56-13.62-1.07-.38-5.16-1.36-12.07 2a8.26 8.26 0 0 1 .52.71.4.4 0 1 1-.67.43 7.41 7.41 0 0 0-.59-.78c-.69.35-1.39.73-2.13 1.18l-.29.18a8.22 8.22 0 0 1 .71.93.4.4 0 0 1-.12.55.39.39 0 0 1-.22.06.4.4 0 0 1-.33-.18 7.61 7.61 0 0 0-.72-.93c-.82.51-1.58 1-2.28 1.53a8 8 0 0 1 .69.91.4.4 0 0 1-.34.61z"/><path class="cls-2" d="M412.2 416c-.24 3.49-3.95 9.64-10 13.21a24.06 24.06 0 0 1-11.84 3.43 12.15 12.15 0 0 1-3.52-.46 4.94 4.94 0 0 1-1.72-.89c0 .09.07.19.12.28 1.84 3.2 11 4.93 18.41.57S414.16 420 412.2 416zM392 420.44c-.28-.28-.49-.45-.49-.45a.4.4 0 1 1 .5-.62s.29.24.64.58c.69-.5 1.45-1 2.26-1.52-.25-.23-.42-.38-.42-.38a.4.4 0 1 1 .5-.62s.28.23.61.56l.44-.27c.68-.41 1.34-.77 2-1.1-.31-.31-.54-.5-.55-.5a.4.4 0 0 1 .5-.62 10.39 10.39 0 0 1 .8.75c5.45-2.69 9.23-2.8 11.33-2.49-3.61-2.15-10.42-2.06-16.36 1.44s-8.82 9.53-9 13.57c.79-1.87 2.74-4.94 7.24-8.33z"/><circle class="cls-3" cx="398.93" cy="425.36" r="23.35"/></svg>