<svg id="Capa_1" data-name="Capa 1" xmlns="http://www.w3.org/2000/svg" viewBox="0 0 730.42 560.18"><defs><style>.cls-1{fill:#c6c6c6;}.cls-2{fill:#3c3c3b;}</style></defs><title>landing-animacion</title><path class="cls-1" d="M512.47 61.77h128.06v155H512.47z"/><path class="cls-2" d="M544.74 166.26A3.67 3.67 0 0 1 543 169c9.42 4.59 17.73 6.19 28 4.14 11.4-2.28 22.15-7.49 30.23-16 7.26-7.66 17.68-29.67 5-37.81-2.88-1.85-6.28-2.07-8.76-4.58a11.92 11.92 0 0 1-2.85-4.49c-.47-1.36-.24-2.7-1.64-3.59 1.42 3.84-.9 5.88-3.94 7.83 3.74.48 4.68 1.68 6.66 4.15 6.85 7.94 6.69 17.34 1.08 25.64-9.06 13.39-24.92 18.64-40 20.25-3 .32-5.87-.06-8.8.47-1.98.38-1.51.13-3.24 1.25z"/><path class="cls-2" d="M545.79 168.27a32.27 32.27 0 0 0 11.06 3.73c-1.48-.51-3.73-.89-4.6-1.85h.36c-1.1-1.81-1.75-.49-2.7-.71-1.4-.3-2.67-.96-4.12-1.17zM546.88 166.18a11.24 11.24 0 0 0 5.27.13c-1.53-.52-3.89-1.03-5.27-.13zM592.48 107.52c.69 3.33-2.14 5.33-4.73 6.79.08-1.87-1-11 0-12 2.6-2.65 4.47 3.69 4.73 5.21zM542.44 162.42c-2 1.18-3.74 3.72-1.8 5.83 1.82-.85 2.75-4.04 1.8-5.83zM592.48 116.3c4.45 11.71-.34 27.47-10.56 34.28-5.77 3.85-12.76 5.71-19.48 7.06a88 88 0 0 0-10.08 2.18c-2.89.94-5.62 2.48-8.77 2.22a14.22 14.22 0 0 1 .15 2.41c.68-2.06 5-1 7.22-1.33 4-.65 8-.94 12-1.5a48.83 48.83 0 0 0 23.63-10.22c9.42-7.75 16.32-20 8.9-31.58a18.77 18.77 0 0 1-3.01-3.52z"/><path class="cls-2" d="M593.77 119.91c.13.3.11.21 0 0z"/></svg>