<svg id="Capa_1" data-name="Capa 1" xmlns="http://www.w3.org/2000/svg" viewBox="0 0 2016.17 2016.17"><defs><style>.cls-1{fill:#3c3c3b;}</style></defs><title>landing</title><path class="cls-1" d="M1135.64 1781.41a226 226 0 0 1-160.33-66.31c-88.41-88.41-88.41-232.26 0-320.67s232.26-88.41 320.67 0 88.41 232.26 0 320.67a226 226 0 0 1-160.34 66.31zm0-451.14a223.91 223.91 0 0 0-158.82 65.68c-87.58 87.58-87.58 230.07 0 317.65s230.07 87.58 317.65 0 87.58-230.07 0-317.65a223.91 223.91 0 0 0-158.83-65.68z"/></svg>