<svg id="Capa_1" data-name="Capa 1" xmlns="http://www.w3.org/2000/svg" viewBox="0 0 730.42 560.18"><defs><style>.cls-1{fill:#3c3c3b;}.cls-2{fill:#b2b2b2;}</style></defs><title>landing-animacion</title><path class="cls-1" d="M559.54 457.73a1.09 1.09 0 1 1 1.1-1.1 1.09 1.09 0 0 1-1.1 1.1zM536.08 476.07l.44-.31c.19-.13.38-.27.59-.39 2.89-1.74 1.91-3.47.41-4.69q-.91.39-1.87.72l-.47.16c-9.12 2.93-21.19 2.19-25.06 3.16-5.1 1.27-4.46 6.79-4.46 6.79 9.4 2.08 20.39 2.72 31.12 2.62-3.63-1.58-4.46-5.19-.7-8.06z"/><path class="cls-2" d="M472.91 366.44h151.81v183.75H472.91z"/><path class="cls-1" d="M496.11 474.22c3.77 1.28 34.74 6.9 78.58-1.45l27.29-1-6.37 10.4h-20.54v-2.65s-27.13 5.2-53.24 3.61-25.72-8.91-25.72-8.91zM549.34 438.88s7.65-6.69 9.8-5.57c0 0-1.14-.25-.87 4-.01-.01-3.6-1.31-8.93 1.57zM597.2 441a31.16 31.16 0 0 0-2.2-4.1c-18.05 13-25.48 4.67-36.31 2.55s-18.69 8.5-26.79 16.14a16.73 16.73 0 0 1-4.75 3.05c1.59 1.22 2.77 3-.24 4.83a11 11 0 0 0-1 .71l-.43.36c-3.25 2.8-2.35 6.18 1.12 7.69h.91a326.71 326.71 0 0 0 45.07-4.23c4.08-16.44 18.98-24.53 24.62-27zm-65.06 18.28a1.09 1.09 0 1 1 1.09-1.1 1.1 1.1 0 0 1-1.1 1.05zm4-3.57a1.09 1.09 0 1 1 1.09-1.1 1.1 1.1 0 0 1-1.05 1.05zm3.75-3.3a1.09 1.09 0 1 1 1.1-1.09 1.09 1.09 0 0 1-1.06 1.03zm3.81-3.24a1.09 1.09 0 1 1 1.1-1.1 1.09 1.09 0 0 1-1.06 1.05zm3.9-3.28a1.09 1.09 0 1 1 1.1-1.1 1.09 1.09 0 0 1-1.06 1.05z"/><path class="cls-1" d="M524.18 464.18l.44-.31c.19-.13.38-.27.59-.39 2.89-1.74 1.91-3.47.41-4.69q-.91.39-1.87.72l-.47.16c-9.12 2.93-21.19 2.19-25.06 3.16-5.1 1.27-4.46 6.79-4.46 6.79 9.4 2.08 20.39 2.72 31.12 2.62-3.63-1.59-4.46-5.24-.7-8.06zM600.31 445l-.25-.58-.26-.58c-5.66 2.55-20.11 10.5-24.35 26.48h.22l2.45-.13h.78l24.58-1.31a45.67 45.67 0 0 0-3.17-23.88z"/></svg>