<svg id="Capa_1" data-name="Capa 1" xmlns="http://www.w3.org/2000/svg" viewBox="0 0 730.42 560.18"><defs><style>.cls-1{fill:#575756;}</style></defs><title>landing-animacion</title><path class="cls-1" d="M553.03 79.69h4.86v17.67h8.98v4.48h-13.84V79.69zM569 86.82h4.66v15H569v-15zm2.33-7.46a2.7 2.7 0 1 1-2.7 2.71 2.71 2.71 0 0 1 2.7-2.71M593.17 79.69h4.67v13.23l5.28-6.11h5.71l-6.11 6.95 5.98 8.08h-5.85l-4.96-7.42h-.05v7.42h-4.67V79.69zM576.26 86.82h4.48v2.05h.06a4.9 4.9 0 0 1 4.41-2.42c4.73 0 5.6 3.11 5.6 7.15v8.23h-4.66v-7.3c0-1.74 0-4-2.43-4s-2.8 1.9-2.8 3.85v7.42h-4.66v-15z"/><path class="cls-1" d="M618.65 92.58a2.8 2.8 0 0 0-2.86-2.86 3.11 3.11 0 0 0-3.29 2.86h6.16zm3.95 6.65a8.21 8.21 0 0 1-6.37 3c-4.66 0-8.4-3.11-8.4-7.93s3.73-7.93 8.4-7.93c4.35 0 7.09 3.11 7.09 7.93v1.46h-10.83a3.48 3.48 0 0 0 3.51 2.91 4 4 0 0 0 3.33-1.83zM633 90.45a3.83 3.83 0 1 0 3.73 3.82 3.53 3.53 0 0 0-3.73-3.82m8 11.38h-4.29v-2h-.01a5.86 5.86 0 0 1-4.63 2.36c-4.48 0-7.43-3.23-7.43-7.8 0-4.2 2.61-8.05 6.9-8.05a5.63 5.63 0 0 1 4.79 2h.06v-8.65h4.67v22.14zM674.84 75H648a2.3 2.3 0 0 0-2.32 2.27v26.92a2.3 2.3 0 0 0 2.32 2.27h26.81a2.3 2.3 0 0 0 2.33-2.27V77.3a2.3 2.3 0 0 0-2.3-2.3zM655 101.84h-4.67v-15H655v15zm-2.33-17.06a2.71 2.71 0 1 1 2.7-2.7 2.7 2.7 0 0 1-2.66 2.7zm19.81 17.06h-4.66v-7.3c0-1.74 0-4-2.42-4s-2.8 1.9-2.8 3.86v7.43H658v-15h4.48v2.05h.06a4.9 4.9 0 0 1 4.41-2.42c4.72 0 5.6 3.11 5.6 7.15v8.23z"/></svg>