<svg id="Capa_1" data-name="Capa 1" xmlns="http://www.w3.org/2000/svg" viewBox="0 0 730.42 560.18"><defs><style>.cls-1{fill:#c6c6c6;}.cls-2{fill:#3c3c3b;}</style></defs><title>landing-animacion</title><path class="cls-1" d="M138.45 361h124.96v151.24H138.45z"/><path class="cls-2" d="M184.19 431.93a1.27 1.27 0 0 1-1.07-.58 23.91 23.91 0 0 0-2.12-2.77c-17.05 12.94-22.39 24.31-23.93 28.94.92 1.85 3.13 3.36 6.42 4.37 10.24 3.15 29.75 1 47.23-9.3 23.08-13.56 32.81-36.4 30.66-43.68-3.44-1.22-16.54-4.36-38.72 6.34a26.48 26.48 0 0 1 1.68 2.28 1.27 1.27 0 1 1-2.14 1.38 23.76 23.76 0 0 0-1.89-2.51c-2.2 1.13-4.47 2.36-6.84 3.77-.33.19-.61.39-.94.59a26.36 26.36 0 0 1 2.27 3 1.28 1.28 0 0 1-.38 1.76 1.25 1.25 0 0 1-.69.2 1.27 1.27 0 0 1-1.07-.58 24.39 24.39 0 0 0-2.31-3c-2.62 1.64-5.07 3.28-7.3 4.9a25.74 25.74 0 0 1 2.21 2.91 1.27 1.27 0 0 1-1.07 1.98z"/><path class="cls-2" d="M244.12 412.44c-.76 11.21-12.66 30.93-32.12 42.37-13.42 7.89-27.31 11-38 11a39 39 0 0 1-11.29-1.46 15.83 15.83 0 0 1-5.53-2.87c.14.29.24.62.39.9 5.91 10.27 35.24 15.8 59 1.81 23.43-13.75 33.86-38.73 27.55-51.75zM179.23 426.71c-.9-.88-1.57-1.43-1.58-1.44a1.27 1.27 0 1 1 1.61-2c.07.06.92.76 2 1.87 2.21-1.61 4.65-3.24 7.24-4.89-.79-.75-1.34-1.21-1.35-1.22a1.27 1.27 0 1 1 1.61-2c.07.06.88.73 2 1.8.48-.29.91-.58 1.4-.88 2.18-1.3 4.28-2.47 6.32-3.53-1-1-1.74-1.6-1.76-1.62a1.27 1.27 0 0 1 1.61-2 33.32 33.32 0 0 1 2.56 2.41c17.48-8.62 29.61-9 36.33-8-11.58-6.89-33.42-6.59-52.48 4.6-18.63 10.94-28.3 30.57-28.82 43.52 2.72-5.89 8.98-15.73 23.31-26.62z"/></svg>