<svg id="Capa_1" data-name="Capa 1" xmlns="http://www.w3.org/2000/svg" viewBox="0 0 730.42 560.18"><defs><style>.cls-1{fill:#dadada;}.cls-2{fill:#3c3c3b;}.cls-3,.cls-4{fill:none;stroke:#3c3c3b;stroke-miterlimit:10;}.cls-3{stroke-width:1.29px;}.cls-4{stroke-width:0.91px;}</style></defs><title>landing-animacion</title><rect class="cls-1" x="252.67" y="401.5" width="224.77" height="121.33" rx="3" ry="3"/><path class="cls-2" d="M289.2 472.28a2.74 2.74 0 0 1-1.26 2.08c7.05 3.44 13.27 4.63 21 3.1a42.24 42.24 0 0 0 22.62-12c5.43-5.73 13.23-22.2 3.75-28.3-2.15-1.38-4.7-1.55-6.55-3.43a8.92 8.92 0 0 1-2.13-3.36c-.36-1-.18-2-1.23-2.69 1.06 2.87-.67 4.4-3 5.86 2.8.36 3.5 1.26 5 3.1 5.13 5.94 5 13 .81 19.19-6.78 10-18.65 14-29.92 15.15-2.21.24-4.39 0-6.58.35a4 4 0 0 0-2.51.95z"/><path class="cls-2" d="M290 473.78a24.15 24.15 0 0 0 8.28 2.78c-1.11-.38-2.79-.67-3.45-1.39h.27c-.82-1.35-1.31-.37-2-.53-1.1-.21-2.03-.7-3.1-.86zM290.8 472.22a8.41 8.41 0 0 0 3.94.1c-1.13-.39-2.9-.77-3.94-.1zM324.93 428.32c.51 2.49-1.6 4-3.54 5.08.06-1.4-.76-8.21 0-8.95 1.94-2.01 3.35 2.74 3.54 3.87zM287.48 469.41c-1.53.88-2.8 2.78-1.35 4.36a3.58 3.58 0 0 0 1.35-4.36zM324.93 434.89c3.33 8.76-.26 20.56-7.91 25.66-4.32 2.88-9.55 4.27-14.58 5.28a65.89 65.89 0 0 0-7.54 1.63c-2.16.71-4.21 1.86-6.56 1.66a10.65 10.65 0 0 1 .11 1.81c.51-1.54 3.76-.73 5.4-1 3-.48 6-.7 9-1.12a36.54 36.54 0 0 0 17.68-7.65c7.05-5.8 12.21-15 6.66-23.63a14 14 0 0 1-2.26-2.64z"/><path class="cls-2" d="M325.9 437.59c.1.23.08.16 0 0z"/><circle class="cls-3" cx="312.15" cy="454.74" r="43.41"/><path class="cls-2" d="M376.03 497.18v-2.42l5.65-5.12 3.7 2.85 2.07-1.36 2.67 2.6v3.45h-14.09z"/><circle class="cls-3" cx="383.11" cy="494.7" r="10.7"/><path class="cls-2" d="M432.63 481.16c.76.26 7 1.4 15.9-.29l5.52-.2-1.29 2.11h-4.16v-.54a49.8 49.8 0 0 1-10.78.73c-5.27-.33-5.19-1.81-5.19-1.81zM443.4 474s1.55-1.35 2-1.13c0 0-.23-.05-.18.81a2.39 2.39 0 0 0-1.82.32zM453.09 474.43a6.31 6.31 0 0 0-.45-.82c-3.65 2.62-5.16.95-7.35.52s-3.78 1.72-5.41 3.27a3.38 3.38 0 0 1-1 .62c.32.25.56.61 0 1l-.21.14-.09.07a.85.85 0 0 0 .23 1.56h.19a66.12 66.12 0 0 0 9.13-.85c.8-3.37 3.87-5 4.96-5.51zm-13.17 3.7a.22.22 0 1 1 .22-.22.22.22 0 0 1-.22.22zm.82-.72a.22.22 0 1 1 .22-.22.22.22 0 0 1-.22.21zm.76-.67a.22.22 0 1 1 .22-.22.22.22 0 0 1-.22.21zm.77-.65a.22.22 0 1 1 .22-.22.22.22 0 0 1-.22.21zm.79-.66a.22.22 0 1 1 .22-.22.22.22 0 0 1-.22.2z"/><path class="cls-2" d="M438.31 479.13l.09-.06.12-.08c.59-.35.39-.7.08-.95l-.38.14h-.1c-1.85.59-4.29.44-5.07.64a1.26 1.26 0 0 0-.9 1.38 28.79 28.79 0 0 0 6.3.53.87.87 0 0 1-.14-1.6zM453.72 475.24l-.05-.12-.05-.12a8.72 8.72 0 0 0-4.93 5.36h.66l5-.27a9.24 9.24 0 0 0-.63-4.85z"/><circle class="cls-4" cx="444.09" cy="478.35" r="15.67"/><path class="cls-2" d="M395.17 436.95a.42.42 0 0 1-.35-.19 7.89 7.89 0 0 0-.7-.91c-5.63 4.27-7.39 8-7.89 9.55a3.35 3.35 0 0 0 2.12 1.44c3.38 1 9.82.32 15.58-3.07 7.62-4.47 10.82-12 10.12-14.41-1.14-.4-5.46-1.44-12.77 2.09a8.74 8.74 0 0 1 .55.75.42.42 0 1 1-.71.46 7.84 7.84 0 0 0-.62-.83c-.73.37-1.47.78-2.26 1.24l-.31.19a8.7 8.7 0 0 1 .75 1 .42.42 0 0 1-.13.58.41.41 0 0 1-.23.07.42.42 0 0 1-.35-.19 8 8 0 0 0-.76-1c-.86.54-1.67 1.08-2.41 1.62a8.49 8.49 0 0 1 .73 1 .42.42 0 0 1-.36.61z"/><path class="cls-2" d="M414.94 430.52c-.25 3.7-4.18 10.2-10.6 14a25.46 25.46 0 0 1-12.53 3.63 12.85 12.85 0 0 1-3.72-.48 5.22 5.22 0 0 1-1.83-.95c0 .1.08.21.13.3 1.95 3.39 11.63 5.21 19.48.6s11.13-12.81 9.07-17.1zM393.53 435.23c-.3-.29-.52-.47-.52-.48a.42.42 0 1 1 .53-.65s.3.25.67.62c.73-.53 1.54-1.07 2.39-1.61-.26-.25-.44-.4-.45-.4a.42.42 0 1 1 .53-.65s.29.24.65.59l.46-.29c.72-.43 1.41-.81 2.09-1.17-.33-.33-.58-.53-.58-.53a.42.42 0 0 1 .53-.65 11 11 0 0 1 .85.79c5.77-2.84 9.77-3 12-2.64-3.82-2.27-11-2.17-17.31 1.52S386 439.76 385.84 444c.9-1.94 2.96-5.18 7.69-8.77z"/><circle class="cls-3" cx="400.9" cy="440.43" r="24.71"/></svg>