<svg id="Capa_1" data-name="Capa 1" xmlns="http://www.w3.org/2000/svg" viewBox="0 0 730.42 560.18"><defs><style>.cls-1,.cls-2{fill:#575756;}.cls-2{fill-rule:evenodd;}</style></defs><title>landing-animacion</title><path class="cls-1" d="M586.52 199.82a8.47 8.47 0 0 1-8.47-8.47v-9.72a2.43 2.43 0 0 1 4.85 0v3.64h6.1a2.43 2.43 0 0 1 0 4.85h-6.06v1.22a3.63 3.63 0 0 0 3.63 3.63h3.65a2.43 2.43 0 0 1 0 4.85h-3.68zM634.43 199.82a8.45 8.45 0 0 1-8.44-8.47v-9.72a2.43 2.43 0 0 1 4.85 0v3.64h3.64a2.43 2.43 0 1 1 0 4.85h-3.64v1.22a3.63 3.63 0 0 0 3.63 3.63h1.22a2.43 2.43 0 0 1 0 4.85h-1.26zM647.16 199.82a8.45 8.45 0 0 1-8.44-8.47v-9.72a2.43 2.43 0 1 1 4.85 0v3.64h3.64a2.43 2.43 0 1 1 0 4.85h-3.64v1.22a3.63 3.63 0 0 0 3.63 3.63h1.22a2.43 2.43 0 0 1 0 4.85h-1.26zM667.84 192.55a7.24 7.24 0 0 1 7.24-7.28h3.64a2.43 2.43 0 0 1 0 4.85h-3.64a2.43 2.43 0 0 0-2.43 2.43v4.85a2.43 2.43 0 0 1-4.85 0v-4.85zM615.07 185.27a2.43 2.43 0 0 0-2.43 2.43v4.85a2.43 2.43 0 0 1-4.85 0v-4.85a2.43 2.43 0 1 0-4.85 0v4.85a2.43 2.43 0 0 1-4.85 0v-4.85a2.43 2.43 0 1 0-4.85 0v4.85a7.27 7.27 0 0 0 12.12 5.45 7.27 7.27 0 0 0 12.13-5.41v-4.89a2.43 2.43 0 0 0-2.42-2.43zM621.74 185.27a2.43 2.43 0 0 0-2.43 2.43v9.7a2.43 2.43 0 1 0 4.85 0v-9.7a2.43 2.43 0 0 0-2.42-2.43z"/><circle class="cls-1" cx="621.74" cy="181.63" r="2.43"/><path class="cls-2" d="M696.21 185.57a19.52 19.52 0 0 1 4.32-7.87c1.25-1.3 1.89-1.72 1.16-.28a7.81 7.81 0 0 1 1.15-.79c2-1 1.88-.15.49.7 3.81-1.36 3.68.37-.35 1.24a8.09 8.09 0 0 1 7.8 6.62c.14.62 0 .56.6.67a8 8 0 0 0 3.9-.17c-.14.92-1.35 1.52-3.25 1.92-.71.15-.85.11 0 .3a13 13 0 0 0 3.43.24 5.68 5.68 0 0 1-4.37 1.69 15.12 15.12 0 0 1-7.29 9.34c-8 4.55-19.69 3.89-25.54-4.38 3.84 3 9.53 3.68 13.75-.52-2.77 0-3.49-2.07-1.29-3.19-2.08 0-3.4-.68-4.17-1.87-.29-.45-.3-.49.18-.83a3.92 3.92 0 0 1 2-.61c-2.15-.62-3.47-1.74-3.92-3.25-.15-.5-.17-.47.33-.6a9.37 9.37 0 0 1 1.71-.22 5.71 5.71 0 0 1-3-3.67c-.24-1.31 0-1 1-.6 4.39 1.68 8.76 3.48 11.35 6.15z"/><path class="cls-1" d="M666 191.33c0 .85-.36 2.42-1.62 2.42h-8a2.43 2.43 0 0 0 2.35 1.83h5.17a2.12 2.12 0 1 1 0 4.24h-5.17c-4 0-7.28-3.28-7.28-7.88 0-4 3.26-6.67 7.28-6.67S666 188 666 191.33zm-4.85-.61a2.47 2.47 0 0 0-4.85 0h4.85z"/></svg>