<svg id="Capa_1" data-name="Capa 1" xmlns="http://www.w3.org/2000/svg" viewBox="0 0 2016.17 2016.17"><defs><style>.cls-1{fill:#878787;}.cls-2{fill:#3c3c3b;}.cls-3{fill:none;stroke:#3c3c3b;stroke-miterlimit:10;stroke-width:4.19px;}</style></defs><title>landing</title><circle class="cls-1" cx="532.04" cy="1503.88" r="100.65" transform="rotate(-70.55 532.01 1503.86)"/><circle class="cls-1" cx="1135.64" cy="1554.77" r="100.65" transform="rotate(-45 1135.64 1554.77)"/><circle class="cls-1" cx="680.47" cy="477.93" r="100.65" transform="rotate(-29.87 680.42 477.92)"/><circle class="cls-2" cx="546.48" cy="1543.56" r="9.96" transform="rotate(-70.55 546.46 1543.54)"/><circle class="cls-2" cx="561.39" cy="1501.37" r="9.96" transform="rotate(-70.55 561.35 1501.35)"/><circle class="cls-2" cx="599.26" cy="1477.52" r="9.96" transform="matrix(.33 -.94 .94 .33 -993.49 1550.55)"/><path class="cls-2" d="M532.12 1607.21a103.42 103.42 0 0 1-34.47-5.95 102.61 102.61 0 1 1 34.47 5.95zm0-201.36a98 98 0 0 0-32.74 190.47 98 98 0 1 0 32.75-190.48z"/><circle class="cls-2" cx="535.92" cy="1468.45" r="9.96" transform="rotate(-70.55 535.88 1468.43)"/><circle class="cls-2" cx="491.66" cy="1506.16" r="9.96" transform="rotate(-70.55 491.64 1506.14)"/><circle class="cls-2" cx="504.43" cy="1557.61" r="9.96" transform="rotate(-70.55 504.4 1557.58)"/><circle class="cls-2" cx="486.22" cy="1448.15" r="9.96" transform="rotate(-70.55 486.19 1448.13)"/><path class="cls-2" d="M505.09 1559.59l-1.33-4 40.4-13.49-5.24-37.23-53.56 4 52.1-44.56 5.07 36 18.79-1.42.32 4.18-18.53 1.4 5.69 40.53zm29.28-87.06l-36.55 31.26 40.52-3.06z"/><path class="cls-2" d="M535.643 1470.643l.594-4.147 63.344 9.07-.593 4.15zM484.468 1449.25l3.543-2.238 60.27 95.41-3.543 2.236z"/><circle class="cls-2" cx="1177.67" cy="1558.85" r="9.96" transform="rotate(-45 1177.66 1558.85)"/><circle class="cls-2" cx="1146.02" cy="1527.21" r="9.96" transform="rotate(-45 1146.02 1527.21)"/><circle class="cls-2" cx="1140.84" cy="1482.75" r="9.96" transform="rotate(-45 1140.84 1482.75)"/><path class="cls-2" d="M1135.64 1658a103.28 103.28 0 1 1 73-30.25 102.6 102.6 0 0 1-73 30.25zm0-201.26a98 98 0 1 0 69.36 167.35 98 98 0 0 0-69.37-167.31z"/><circle class="cls-2" cx="1105.34" cy="1535.99" r="9.96" transform="rotate(-45 1105.34 1535.98)"/><circle class="cls-2" cx="1120.28" cy="1592.18" r="9.96" transform="rotate(-45 1120.27 1592.18)"/><circle class="cls-2" cx="1172.2" cy="1602.85" r="9.96" transform="rotate(-45 1172.19 1602.85)"/><circle class="cls-2" cx="1065.59" cy="1572.08" r="9.96" transform="rotate(-45 1065.6 1572.08)"/><path class="cls-2" d="M1174.28 1603.11l-4.16-.52 5.25-42.26-35.85-11.33-19.46 50.07-17.73-66.22 34.71 11 6.83-17.57 3.91 1.52-6.73 17.32 38.92 12.3zm-65.92-64l12.44 46.46 14.72-37.87z"/><path class="cls-2" d="M1103.6 1534.955l35.515-53.23 3.485 2.325-35.514 53.23zM1065.36 1570.01l112.07-13.263.49 4.16-112.067 13.265z"/><circle class="cls-1" cx="390.08" cy="987.68" r="100.65"/><path class="cls-2" d="M390.08 1091a103.27 103.27 0 1 1 103.27-103.32A103.39 103.39 0 0 1 390.08 1091zm0-201.3a98 98 0 1 0 98 98 98.14 98.14 0 0 0-98-98.05z"/><circle class="cls-2" cx="342.83" cy="933.08" r="9.96"/><path class="cls-2" d="M340.703 933.53l4.11-.822 12.537 62.75-4.108.82z"/><circle class="cls-2" cx="355.38" cy="995.82" r="9.96"/><circle class="cls-2" cx="405.67" cy="1024.99" r="9.96"/><circle class="cls-2" cx="422.68" cy="960.85" r="9.96"/><circle class="cls-2" cx="449.93" cy="995.82" r="9.96"/><circle class="cls-2" cx="377.94" cy="960.85" r="9.96"/><circle class="cls-2" cx="352.79" cy="1049.44" r="9.96"/><path class="cls-3" d="M377.64 960.85l28.24 64.14-50.5-29.17 67.3-34.97 27.25 34.97M352.79 1049.44l69.89-88.59"/><circle class="cls-1" cx="1075.78" cy="938.84" r="100.65" transform="rotate(-33.53 1075.72 938.81)"/><path class="cls-2" d="M1075.94 1042.08a103.23 103.23 0 1 1 56.88-17.15 103.26 103.26 0 0 1-56.88 17.15zm-.31-201.24a98 98 0 1 0 81.87 43.85 98 98 0 0 0-81.86-43.86z"/><circle class="cls-2" cx="1051.36" cy="964.79" r="9.96" transform="matrix(.83 -.55 .55 .83 -357.97 741.25)"/><circle class="cls-2" cx="1109.39" cy="961.33" r="9.96" transform="rotate(-33.53 1109.33 961.3)"/><circle class="cls-2" cx="1088.14" cy="898.46" r="9.96" transform="rotate(-33.53 1088.08 898.43)"/><circle class="cls-2" cx="1130.17" cy="912.57" r="9.96" transform="matrix(.83 -.55 .55 .83 -316.01 776.09)"/><circle class="cls-2" cx="1050.84" cy="923.17" r="9.96" transform="matrix(.83 -.55 .55 .83 -335.07 734.04)"/><circle class="cls-2" cx="1006.24" cy="919.41" r="9.96" transform="rotate(-33.53 1006.19 919.38)"/><circle class="cls-2" cx="1078.81" cy="1010.92" r="9.96" transform="rotate(-33.53 1078.75 1010.89)"/><path class="cls-2" d="M1047.67 967.12l17.65-31.83-15.86-10.19 2.27-3.53 15.63 10 19.8-35.7 43.69 14.66-1.34 4-40.38-13.53-18.24 32.88 45.2 29zm21.19-29.56l-13.86 24.9 48-3z"/><path class="cls-2" d="M1004.76 921.012l2.972-2.954 45.113 45.382-2.972 2.954zM1076.722 1010.75l9.325-112.465 4.176.346-9.326 112.465z"/><circle class="cls-2" cx="665.56" cy="517.44" r="9.96" transform="rotate(-29.87 665.5 517.43)"/><circle class="cls-2" cx="704.36" cy="495.16" r="9.96" transform="rotate(-29.87 704.32 495.13)"/><circle class="cls-2" cx="748.63" cy="501.76" r="9.96" transform="rotate(-29.87 748.58 501.74)"/><path class="cls-2" d="M580.78 451a103.28 103.28 0 1 1 10.14 78.39A102.6 102.6 0 0 1 580.78 451zm194.28 52.53a98 98 0 1 0-179.6 23.24 98 98 0 0 0 179.6-23.26z"/><circle class="cls-2" cx="706.5" cy="453.59" r="9.96" transform="rotate(-29.87 706.45 453.58)"/><circle class="cls-2" cx="648.36" cy="453.34" r="9.96" transform="rotate(-29.87 648.33 453.33)"/><circle class="cls-2" cx="624.51" cy="500.68" r="9.96" transform="rotate(-29.87 624.48 500.66)"/><circle class="cls-2" cx="682.05" cy="405.8" r="9.96" transform="rotate(-29.87 682.01 405.8)"/><path class="cls-2" d="M623.72 502.62l1.58-3.88 39.43 16.1L685 483.19l-43.25-31.85 68.55.17-19.65 30.64 15.18 11.18-2.49 3.37-15-11-22 34.36zm79-46.94l-48.1-.12 32.72 24.09z"/><path class="cls-2" d="M704.938 455.003l3.155-2.758 42.116 48.177-3.156 2.757zM663.49 517.122l16.446-111.645 4.145.61-16.445 111.646z"/><circle class="cls-1" cx="1403.32" cy="461.62" r="100.65" transform="rotate(-18.4 1403.05 461.59)"/><path class="cls-2" d="M1303.61 434.83a103.23 103.23 0 1 1 1.71 59.39 103.26 103.26 0 0 1-1.71-59.39zM1498 487.06a98 98 0 1 0-63.71 67.58 98 98 0 0 0 63.71-67.58z"/><circle class="cls-2" cx="1384.64" cy="431.27" r="9.96" transform="rotate(-18.4 1384.4 431.23)"/><circle class="cls-2" cx="1372.83" cy="488.2" r="9.96" transform="rotate(-18.4 1372.58 488.14)"/><circle class="cls-2" cx="1439.07" cy="484.09" r="9.96" transform="rotate(-18.2 1423.13 469.96)"/><circle class="cls-2" cx="1414.48" cy="520.99" r="9.96" transform="rotate(-18.4 1414.22 520.93)"/><circle class="cls-2" cx="1424.95" cy="441.64" r="9.96" transform="rotate(-18.4 1424.7 441.59)"/><circle class="cls-2" cx="1440.22" cy="399.56" r="9.96" transform="rotate(-18.4 1439.96 399.55)"/><circle class="cls-2" cx="1332.94" cy="445.73" r="9.96" transform="rotate(-18.4 1332.7 445.69)"/><path class="cls-2" d="M1383.35 427.1l26.12 25.35 14-12.65 2.81 3.11-13.77 12.47 29.29 28.43-25.56 38.34-3.49-2.33 23.62-35.44-27-26.19-39.82 36.06zm23 28.17l-20.44-19.84-9.68 47.11z"/><path class="cls-2" d="M1383.618 429.527l55.584-31.705 2.076 3.64-55.584 31.704zM1332.194 447.68l1.424-3.94 106.132 38.356-1.424 3.94z"/><circle class="cls-1" cx="1630.18" cy="1144.87" r="100.65" transform="rotate(-18.4 1629.87 1144.71)"/><path class="cls-2" d="M1530.47 1118.07a103.23 103.23 0 1 1 1.71 59.39 103.26 103.26 0 0 1-1.71-59.39zm194.35 52.23a98 98 0 1 0-63.71 67.58 98 98 0 0 0 63.71-67.57z"/><circle class="cls-2" cx="1611.5" cy="1114.51" r="9.96" transform="rotate(-18.4 1611.18 1114.37)"/><circle class="cls-2" cx="1599.69" cy="1171.44" r="9.96" transform="rotate(-18.4 1599.37 1171.29)"/><circle class="cls-2" cx="1665.93" cy="1167.34" r="9.96" transform="rotate(-18.4 1665.61 1167.19)"/><circle class="cls-2" cx="1641.34" cy="1204.23" r="9.96" transform="rotate(-18.4 1641.01 1204.07)"/><circle class="cls-2" cx="1651.81" cy="1124.88" r="9.96" transform="rotate(-18.4 1651.48 1124.73)"/><circle class="cls-2" cx="1667.08" cy="1082.81" r="9.96" transform="rotate(-18.4 1666.76 1082.66)"/><circle class="cls-2" cx="1559.8" cy="1128.98" r="9.96" transform="rotate(-18.4 1559.48 1128.84)"/><path class="cls-2" d="M1610.22 1110.35l26.12 25.35 14-12.65 2.81 3.11-13.77 12.47 29.29 28.43-25.56 38.34-3.49-2.33 23.62-35.44-27-26.19-39.82 36.06zm23 28.17l-20.44-19.84-9.68 47.11z"/><path class="cls-2" d="M1610.452 1112.796l55.583-31.705 2.076 3.64-55.582 31.705zM1559.055 1130.9l1.424-3.94 106.13 38.356-1.423 3.94z"/></svg>