<svg id="Capa_1" data-name="Capa 1" xmlns="http://www.w3.org/2000/svg" viewBox="0 0 730.42 560.18"><defs><style>.cls-1{fill:#575756;}</style></defs><title>landing-animacion</title><path class="cls-1" d="M591.65 156.25h.22c13.61 8.11 27.37 16 40.87 24.25-3-.18-6.34.58-8.87-1.41-10.68-6.44-21.58-12.53-32.22-19v-3.8zM603.71 156.25h35c0 7.17 0 14.34-.07 21.5-11.69-7.13-23.35-14.26-34.93-21.5z"/><path class="cls-1" d="M641.25 156.25v26.78h-49.61v10.87h49.61v26.78h9.46c-.08-8.83 0-17.88 0-26.78h49.57V183h-49.61v-26.78h-9.42zM659.19 196c13.32 8.36 40.5 24.25 40.5 24.25l.55.42v-4.16c-10.9-6.59-22-12.92-32.91-19.43-2.38-1.58-5.46-.77-8.14-1.08zm-20.61 0c-3.08.33-6.64-.53-9.32 1.39-12.53 7.71-25 15.51-37.62 23.07v.17h7.62l.48-.28.52-.35c7.41-4.9 15.12-9.36 22.62-14.1 5.22-3.24 10.67-6.23 15.7-9.85zm.07 3.12c-10.23 6.11-20.33 12.45-30.49 18.71l-1.66 1-2.81 1.77h35.06c-.04-7.31-.03-15.05-.1-21.43zm14.93 0v21.48h35l-2.84-1.77-.21-.1c-10.65-6.47-21.23-13.12-31.95-19.53z"/><path class="cls-1" d="M653.56 156.25h34.64c-11.48 7.24-23.1 14.26-34.64 21.39v-21.39zM692.87 156.25h7.38v.14c-10.17 6.16-20.25 12.45-30.44 18.61a92.45 92.45 0 0 1-8.33 5 50.51 50.51 0 0 1-7.78.43c12.96-8.18 26.17-16.04 39.17-24.18zM591.65 162.47c10.1 6.12 20.38 11.87 30.48 18-10.14.07-20.31 0-30.48 0v-18zM670.1 180.43c10-6.08 20.24-11.69 30.16-17.85v17.92c-10.07-.04-20.1.07-30.16-.07zM591.65 196.07c10.17 0 20.38-.11 30.55.11-10.06 6.23-20.49 11.95-30.55 18.17v-18.28zM670.06 196.18c10.06-.22 20.13-.07 30.19-.11v18c-10.02-5.98-20.25-11.7-30.19-17.89z"/></svg>