<svg id="Capa_1" data-name="Capa 1" xmlns="http://www.w3.org/2000/svg" viewBox="0 0 730.42 560.18"><defs><style>.cls-1{fill:#c6c6c6;}.cls-2{fill:#3c3c3b;}.cls-3,.cls-4{fill:none;stroke:#3c3c3b;stroke-miterlimit:10;}.cls-3{stroke-width:1.26px;}.cls-4{stroke-width:0.88px;}</style></defs><title>landing-animacion</title><rect class="cls-1" x="255.77" y="394.54" width="218.58" height="117.99" rx="2.92" ry="2.92"/><path class="cls-2" d="M291.29 463.37a2.67 2.67 0 0 1-1.23 2c6.86 3.34 12.9 4.51 20.38 3a41.08 41.08 0 0 0 22-11.65c5.28-5.57 12.87-21.59 3.64-27.52-2.09-1.35-4.57-1.51-6.37-3.34a8.67 8.67 0 0 1-2.08-3.27c-.35-1-.17-2-1.19-2.61 1 2.79-.65 4.28-2.87 5.7 2.72.35 3.41 1.22 4.85 3 5 5.78 4.87 12.62.79 18.66-6.59 9.74-18.13 13.57-29.09 14.74-2.15.23-4.27 0-6.4.34a3.84 3.84 0 0 0-2.43.95z"/><path class="cls-2" d="M292.06 464.83a23.48 23.48 0 0 0 8.06 2.7c-1.08-.37-2.71-.65-3.35-1.35h.26c-.8-1.32-1.27-.36-2-.52-1.03-.2-1.92-.66-2.97-.83zM292.85 463.31a8.18 8.18 0 0 0 3.84.09c-1.11-.4-2.83-.74-3.84-.09zM326 420.62c.5 2.42-1.56 3.88-3.44 4.94.06-1.36-.74-8 0-8.7 1.92-1.96 3.29 2.66 3.44 3.76zM289.62 460.57c-1.49.86-2.72 2.7-1.31 4.24a3.49 3.49 0 0 0 1.31-4.24zM326 427c3.24 8.52-.25 20-7.69 25-4.2 2.8-9.28 4.15-14.17 5.14a64.07 64.07 0 0 0-7.34 1.59c-2.1.69-4.09 1.81-6.38 1.62a10.35 10.35 0 0 1 .11 1.76c.5-1.5 3.66-.71 5.25-1 2.93-.47 5.82-.68 8.74-1.09a35.53 35.53 0 0 0 17.2-7.44c6.86-5.64 11.88-14.58 6.48-23A13.66 13.66 0 0 1 326 427z"/><path class="cls-2" d="M327 429.64c.1.22.08.15 0 0z"/><circle class="cls-3" cx="313.61" cy="446.31" r="42.22"/><path class="cls-2" d="M375.73 487.58v-2.35l5.49-4.98 3.6 2.77 2.02-1.32 2.59 2.52v3.36h-13.7z"/><circle class="cls-3" cx="382.62" cy="485.17" r="10.4"/><path class="cls-2" d="M430.77 472c.74.25 6.84 1.36 15.47-.28l5.37-.2-1.25 2h-4V473a48.43 48.43 0 0 1-10.48.71c-5.19-.27-5.11-1.71-5.11-1.71zM441.25 465s1.5-1.32 1.93-1.1c0 0-.22 0-.17.79a2.33 2.33 0 0 0-1.76.31zM450.67 465.46a6.13 6.13 0 0 0-.44-.8c-3.55 2.55-5 .92-7.15.5s-3.68 1.67-5.27 3.18a3.29 3.29 0 0 1-.94.6c.31.24.55.6 0 1l-.2.14-.09.07a.83.83 0 0 0 .22 1.51h.18a64.3 64.3 0 0 0 8.88-.82 8.45 8.45 0 0 1 4.81-5.38zm-12.81 3.6a.22.22 0 1 1 .22-.22.22.22 0 0 1-.22.21zm.8-.7a.22.22 0 1 1 .22-.22.22.22 0 0 1-.22.21zm.74-.65a.22.22 0 1 1 .22-.22.22.22 0 0 1-.22.21zm.75-.64a.22.22 0 1 1 .22-.22.22.22 0 0 1-.23.21zm.77-.65a.22.22 0 1 1 .22-.22.22.22 0 0 1-.23.22z"/><path class="cls-2" d="M436.3 470l.09-.06.12-.08c.57-.34.38-.68.08-.92l-.37.14h-.09c-1.79.58-4.17.43-4.93.62a1.23 1.23 0 0 0-.88 1.34 28 28 0 0 0 6.12.52.85.85 0 0 1-.14-1.56zM451.28 466.25v-.11l-.05-.11a8.48 8.48 0 0 0-4.79 5.21h.63l4.84-.26a9 9 0 0 0-.63-4.73z"/><circle class="cls-4" cx="441.91" cy="469.27" r="15.24"/><path class="cls-2" d="M394.34 429a.41.41 0 0 1-.34-.19 7.67 7.67 0 0 0-.68-.89c-5.47 4.15-7.18 7.8-7.68 9.29a3.25 3.25 0 0 0 2.06 1.4c3.29 1 9.55.31 15.15-3 7.41-4.35 10.53-11.68 9.84-14-1.11-.39-5.31-1.4-12.42 2a8.5 8.5 0 0 1 .54.73.41.41 0 1 1-.69.44 7.62 7.62 0 0 0-.61-.8c-.71.36-1.43.76-2.19 1.21l-.3.19a8.46 8.46 0 0 1 .73 1 .41.41 0 0 1-.12.57.4.4 0 0 1-.22.07.41.41 0 0 1-.34-.19 7.83 7.83 0 0 0-.74-1c-.84.53-1.63 1.05-2.34 1.57a8.26 8.26 0 0 1 .71.93.41.41 0 0 1-.36.67z"/><path class="cls-2" d="M413.57 422.75c-.25 3.6-4.06 9.92-10.3 13.59a24.76 24.76 0 0 1-12.19 3.53 12.5 12.5 0 0 1-3.62-.47 5.08 5.08 0 0 1-1.77-.92c0 .09.08.2.13.29 1.9 3.29 11.31 5.07 18.95.58s10.82-12.42 8.8-16.6zM392.74 427.33c-.29-.28-.5-.46-.51-.46a.41.41 0 1 1 .52-.63s.29.24.66.6c.71-.52 1.49-1 2.32-1.57-.25-.24-.43-.39-.43-.39a.41.41 0 1 1 .52-.63s.28.23.63.58l.45-.28c.7-.42 1.37-.79 2-1.13-.32-.32-.56-.51-.56-.52a.41.41 0 0 1 .52-.63 10.69 10.69 0 0 1 .82.77c5.61-2.76 9.5-2.88 11.66-2.56-3.72-2.21-10.72-2.11-16.84 1.48s-9.08 9.81-9.25 14c.89-1.96 2.9-5.13 7.49-8.63z"/><circle class="cls-3" cx="399.91" cy="432.4" r="24.03"/></svg>