<svg id="Capa_1" data-name="Capa 1" xmlns="http://www.w3.org/2000/svg" viewBox="0 0 730.42 560.18"><defs><style>.cls-1{fill:#b2b2b2;}.cls-2{fill:#3c3c3b;}</style></defs><title>landing-animacion</title><rect class="cls-1" x="511.52" y="388.57" width="212.42" height="114.67" rx="2.84" ry="2.84"/><path class="cls-2" d="M618.67 418.37h85.12v3.11h-85.12zM618.67 430.68h85.12v3.11h-85.12zM618.67 442.99h57.67v3.11h-57.67zM618.67 461h85.12v3.11h-85.12zM618.67 473.44h76.71v3.11h-76.71zM561.27 420.39h10.92v4.78h3.41v-4.78a3.34 3.34 0 0 0-3.41-3.41h-10.92a3.34 3.34 0 0 0-3.41 3.41v4.78h3.41v-4.78zM561.27 438.82v12.28h10.92v-12.28h-10.92z"/><path class="cls-2" d="M597.43 426.53H536a3.34 3.34 0 0 0-3.41 3.41v11.6h25.25v-5.72h17.74v5.72h25.25v-11.6a3.34 3.34 0 0 0-3.4-3.41zM575.59 445v8.62h-17.74V445h-25.24v27.29a3.34 3.34 0 0 0 3.41 3.41h61.41a3.34 3.34 0 0 0 3.41-3.41V445h-25.25z"/></svg>