<svg id="Capa_1" data-name="Capa 1" xmlns="http://www.w3.org/2000/svg" viewBox="0 0 730.42 560.18"><defs><style>.cls-1{fill:#dadada;}.cls-2{fill:#3c3c3b;}</style></defs><title>landing-animacion</title><rect class="cls-1" x="505.34" y="401.5" width="224.77" height="121.33" rx="3" ry="3"/><path class="cls-2" d="M618.72 433.04h90.07v3.3h-90.07zM618.72 446.06h90.07v3.3h-90.07zM618.72 459.09h61.03v3.3h-61.03zM618.72 478.15h90.07v3.3h-90.07zM618.72 491.31h81.17v3.3h-81.17zM558 435.18h11.55v5.05h3.61v-5.05c0-3.61-3.61-3.61-3.61-3.61H558s-3.61 0-3.61 3.61v5.05H558v-5.05zM558 454.67v13h11.55v-13H558z"/><path class="cls-2" d="M596.25 441.68h-65s-3.61 0-3.61 3.61v12.27h26.71v-6.05h18.77v6.05h26.71v-12.27c.03-3.61-3.58-3.61-3.58-3.61zM573.15 461.17v9.12h-18.78v-9.12h-26.71V490c0 3.61 3.61 3.61 3.61 3.61h65s3.61 0 3.61-3.61v-28.83h-26.73z"/></svg>