<svg id="Capa_1" data-name="Capa 1" xmlns="http://www.w3.org/2000/svg" viewBox="0 0 2016.17 2016.17"><defs><style>.cls-1{fill:#3c3c3b;}</style></defs><title>landing</title><path class="cls-1" d="M461.69 418.77a226 226 0 0 1 105.86-137.46C676 219 814.83 256.59 877.1 365s24.72 247.28-83.71 309.55-247.29 24.73-309.55-83.69a226 226 0 0 1-22.15-172.09zm435.5 117.77a223.91 223.91 0 0 0-21.95-170.46c-61.68-107.4-199.24-144.6-306.63-82.92S424 482.39 485.69 589.79s199.23 144.6 306.63 82.92a223.91 223.91 0 0 0 104.87-136.17z"/></svg>