<svg id="Capa_1" data-name="Capa 1" xmlns="http://www.w3.org/2000/svg" viewBox="0 0 2016.17 2016.17"><defs><style>.cls-1{fill:#3c3c3b;}</style></defs><title>lineas</title><path class="cls-1" d="M778.53 481.15l-.08-3 10.67-.3.08 3zm21.34-.6l-.08-3 10.67-.3.08 3zm21.34-.6l-.08-3 10.67-.3.08 3zm21.34-.6l-.08-3 10.67-.3.08 3zm21.34-.6l-.08-3 10.67-.3.08 3zm21.34-.6l-.08-3 10.67-.3.08 3zm21.34-.6l-.08-3 10.67-.3.08 3zm21.34-.6l-.08-3 10.67-.3.08 3zm21.34-.6l-.08-3 10.67-.3.08 3zm21.34-.6l-.08-3 10.67-.3.08 3zm21.34-.6l-.08-3 10.67-.3.08 3zm21.34-.6l-.08-3 10.67-.3.08 3zm21.34-.6l-.08-3 10.67-.3.08 3zm21.34-.6l-.08-3 10.67-.3.08 3zm21.34-.6l-.08-3 10.67-.3.08 3zm21.34-.6l-.08-3 10.67-.3.08 3zm21.34-.6l-.08-3 10.67-.3.08 3zm21.34-.6l-.08-3 10.67-.3.08 3zm21.34-.6l-.08-3 10.67-.3.08 3zm21.34-.6l-.08-3 10.67-.3.08 3zm21.34-.6l-.08-3 10.67-.3.08 3zm21.34-.6l-.08-3 10.67-.3.08 3zm21.34-.6l-.08-3 10.67-.3.08 3zm21.34-.6l-.08-3 10.67-.3.08 3zm21.34-.6l-.08-3 9.4-.27.08 3z"/></svg>