<svg id="Capa_1" data-name="Capa 1" xmlns="http://www.w3.org/2000/svg" viewBox="0 0 2016.17 2016.17"><defs><style>.cls-1{fill:#3c3c3b;}</style></defs><title>lineas</title><path class="cls-1" d="M1535 1120.83l-6-2.37 1.1-2.79 6 2.37zm-15.92-6.3l-9.93-3.93 1.1-2.79 9.93 3.93zm-19.85-7.85l-9.93-3.93 1.1-2.79 9.93 3.93zm-19.85-7.85l-9.93-3.93 1.1-2.79 9.93 3.93zm-19.88-7.83l-9.93-3.93 1.1-2.79 9.93 3.93zm-19.85-7.85l-9.93-3.93 1.1-2.79 9.93 3.93zm-19.85-7.85l-9.93-3.93 1.1-2.79 9.93 3.93zm-19.85-7.85l-9.93-3.93 1.1-2.79 9.93 3.93zm-19.85-7.85l-9.93-3.93 1.1-2.79 9.93 3.93zm-19.85-7.85l-9.93-3.93 1.1-2.79 9.93 3.93zm-19.85-7.85l-9.93-3.93 1.1-2.79 9.93 3.93zm-19.85-7.85l-9.93-3.93 1.1-2.79 9.93 3.93zm-19.85-7.85l-9.93-3.93 1.1-2.79 9.93 3.93zm-19.85-7.85l-9.93-3.93 1.1-2.79 9.93 3.93zm-19.85-7.85l-9.93-3.93 1.1-2.79 9.93 3.93zm-19.85-7.85l-9.93-3.93 1.1-2.79 9.93 3.93zm-19.85-7.85l-9.93-3.93 1.1-2.79 9.93 3.93zm-19.85-7.85l-9.95-3.95 1.1-2.79 9.93 3.93zm-19.85-7.85l-9.93-3.93 1.1-2.79 9.93 3.93z"/></svg>