<svg id="Capa_1" data-name="Capa 1" xmlns="http://www.w3.org/2000/svg" viewBox="0 0 2016.17 2016.17"><defs><style>.cls-1{fill:#3c3c3b;}</style></defs><title>lineas</title><path class="cls-1" d="M1132 858l-2.4-1.8 6.42-8.53 2.4 1.8zm12.88-17l-2.4-1.8 6.42-8.53 2.4 1.8zm12.84-17.05l-2.4-1.8 6.42-8.53 2.4 1.8zm12.84-17.05l-2.4-1.8 6.42-8.53 2.4 1.8zm12.84-17.05L1181 788l6.42-8.53 2.4 1.8zm12.84-17.05l-2.4-1.8 6.42-8.53 2.4 1.8zm12.84-17.05l-2.4-1.8 6.42-8.53 2.4 1.8zm12.84-17.05l-2.4-1.8 6.42-8.53 2.4 1.8zm12.84-17.05l-2.4-1.8 6.42-8.53 2.4 1.8zm12.84-17.05l-2.4-1.8 6.42-8.53 2.4 1.8zm12.84-17.05l-2.4-1.8 6.42-8.53 2.4 1.8zm12.84-17.05l-2.4-1.8 6.42-8.53 2.4 1.8zm12.84-17.05l-2.4-1.8 6.42-8.53 2.4 1.8zm12.88-17.14l-2.4-1.8 6.4-8.51 2.4 1.8zm12.84-17.05l-2.4-1.8 6.42-8.53 2.4 1.8zm12.84-17.05l-2.4-1.8 6.42-8.53 2.4 1.8zm12.84-17.05l-2.4-1.8 6.42-8.53 2.4 1.8zm12.84-17.05l-2.4-1.8 6.42-8.53 2.4 1.8z"/></svg>