<svg id="Capa_1" data-name="Capa 1" xmlns="http://www.w3.org/2000/svg" viewBox="0 0 2016.17 2016.17"><defs><style>.cls-1{fill:#3c3c3b;}</style></defs><title>lineas</title><path class="cls-1" d="M1030.64 1546.9l-10.62-1.1.31-3 10.62 1.1zm-21.23-2.2l-10.62-1.1.31-3 10.62 1.1zm-21.23-2.2l-10.62-1.1.31-3 10.62 1.1zm-21.23-2.2l-10.62-1.1.31-3 10.62 1.1zm-21.23-2.2l-10.62-1.1.31-3 10.62 1.1zm-21.23-2.2l-10.62-1.1.31-3 10.62 1.1zm-21.23-2.2l-10.62-1.1.31-3 10.62 1.1zm-21.23-2.2l-10.62-1.1.31-3 10.62 1.1zm-21.23-2.2l-10.62-1.1.31-3 10.62 1.1zm-21.23-2.2l-10.62-1.1.31-3 10.62 1.1zm-21.23-2.2l-10.62-1.1.31-3 10.62 1.1zm-21.23-2.2l-10.62-1.1.31-3 10.62 1.1zm-21.23-2.2l-10.62-1.1.31-3 10.62 1.1zm-21.23-2.2l-10.62-1.1.31-3 10.62 1.1zm-21.23-2.2l-10.62-1.1.31-3 10.62 1.1zm-21.23-2.2l-10.62-1.1.31-3 10.62 1.1zm-21.23-2.2l-10.62-1.1.31-3 10.62 1.1zm-21.23-2.2l-10.62-1.1.31-3 10.62 1.1zm-21.23-2.2l-10.62-1.1.31-3 10.62 1.1z"/></svg>