<svg id="Capa_1" data-name="Capa 1" xmlns="http://www.w3.org/2000/svg" viewBox="0 0 2016.17 2016.17"><defs><style>.cls-1{fill:#3c3c3b;}</style></defs><title>lineas</title><path class="cls-1" d="M1597.55 1051.54l-3.36-10.13 2.85-.94 3.36 10.13zm-6.72-20.26l-3.36-10.13 2.85-.95 3.36 10.13zm-6.72-20.26l-3.36-10.13 2.85-.95 3.36 10.13zm-6.72-20.26l-3.39-10.14 2.85-.95 3.36 10.13zm-6.72-20.26l-3.36-10.13 2.85-.94 3.36 10.13zm-6.72-20.26l-3.36-10.13 2.85-.94 3.36 10.13zm-6.74-20.24l-3.36-10.13 2.85-.94 3.36 10.13zm-6.72-20.26l-3.36-10.13 2.85-.94 3.36 10.13zm-6.72-20.26l-3.36-10.13 2.85-.94 3.36 10.13zm-6.77-20.3l-3.32-10.18 2.85-.95 3.36 10.13zm-6.72-20.26l-3.28-10.13 2.85-.94 3.36 10.13zm-6.72-20.26l-3.36-10.13 2.85-.95 3.36 10.13zm-6.72-20.26l-3.36-10.13 2.85-.94 3.36 10.13zm-6.72-20.26l-3.33-10.14 2.85-.95 3.36 10.13zm-6.72-20.26l-3.36-10.13 2.85-.95 3.36 10.13zm-6.72-20.26l-3.36-10.13 2.85-.94 3.36 10.13zm-6.68-20.27l-3.36-10.13 2.85-.95 3.36 10.13zm-6.72-20.26l-3.39-10.09 2.85-.94 3.36 10.13zm-6.72-20.26l-3.36-10.13 2.85-.94 3.36 10.13zm-6.72-20.26l-3.36-10.13 2.85-.94 3.36 10.13zm-6.72-20.26l-3.36-10.13 2.85-.94 3.36 10.13zm-6.76-20.31l-3.36-10.09 2.85-.95 3.36 10.13zm-6.72-20.26l-3.36-10.13 2.85-.95 3.36 10.13zm-6.72-20.26l-3.36-10.13 2.85-.94 3.36 10.13zm-6.72-20.26l-3.36-10.13 2.85-.95 3.36 10.13z"/></svg>