<svg id="Capa_1" data-name="Capa 1" xmlns="http://www.w3.org/2000/svg" viewBox="0 0 2016.17 2016.17"><defs><style>.cls-1{fill:#3c3c3b;}</style></defs><title>lineas</title><path class="cls-1" d="M465.35 925.52l-1.31-2.7 9.61-4.65 1.31 2.7zm19.22-9.3l-1.31-2.7 9.61-4.65 1.31 2.7zm19.22-9.3l-1.31-2.7 9.61-4.65 1.31 2.7zm19.22-9.3l-1.31-2.7 9.61-4.65 1.31 2.7zm19.22-9.3l-1.31-2.7 9.61-4.65 1.31 2.7zm19.22-9.3l-1.31-2.7 9.61-4.65 1.31 2.7zm19.22-9.3l-1.31-2.7 9.61-4.65 1.31 2.7zm19.22-9.3l-1.31-2.7 9.61-4.65 1.31 2.7zm19.22-9.3l-1.31-2.7 9.61-4.65 1.31 2.7zm19.22-9.3l-1.31-2.7 9.61-4.65 1.31 2.7zm19.22-9.3l-1.31-2.7 9.61-4.65 1.31 2.7zm19.22-9.3l-1.31-2.7 9.61-4.65 1.31 2.7zm19.22-9.3l-1.31-2.7 9.61-4.65 1.31 2.7zm19.22-9.3l-1.31-2.7 9.61-4.65 1.31 2.7zm19.22-9.3l-1.31-2.7 9.61-4.65 1.31 2.7zM753.6 786l-1.31-2.7 9.61-4.65 1.31 2.7zm19.22-9.3l-1.31-2.7 9.61-4.65 1.31 2.7zm19.22-9.3l-1.31-2.7 9.61-4.65 1.31 2.7zm19.22-9.3l-1.31-2.7 9.61-4.65 1.31 2.7zm19.22-9.3l-1.31-2.7 9.61-4.65 1.31 2.7zm19.22-9.3l-1.31-2.7 9.61-4.6 1.31 2.7zm19.22-9.3l-1.31-2.7 9.61-4.65 1.31 2.7zm19.22-9.3l-1.31-2.7 9.61-4.65 1.31 2.7zm19.22-9.3L906 709l9.61-4.65 1.31 2.7zm19.22-9.3l-1.31-2.7 9.61-4.65 1.31 2.7zm19.22-9.3l-1.31-2.7 9.61-4.65 1.31 2.7zm19.22-9.3l-1.31-2.7 9.61-4.65 1.31 2.7zm19.22-9.3l-1.31-2.7 9.61-4.65 1.31 2.7zm19.22-9.3l-1.31-2.7 9.61-4.65 1.31 2.7zm19.22-9.3l-1.31-2.7 9.61-4.65 1.31 2.7zm19.22-9.3l-1.31-2.7 9.61-4.65 1.31 2.7zm19.22-9.3l-1.31-2.7 9.61-4.65 1.31 2.7zm19.22-9.3l-1.31-2.7 9.61-4.65 1.31 2.7zm19.22-9.3l-1.31-2.7 9.61-4.65 1.31 2.7zm19.22-9.3l-1.31-2.7 9.53-4.6 1.31 2.7zM1138 600l-1.31-2.7 9.61-4.65 1.31 2.7zm19.22-9.3l-1.31-2.7 9.61-4.65 1.31 2.7zm19.22-9.3l-1.31-2.7 9.61-4.65 1.31 2.7zm19.22-9.3l-1.31-2.7 9.61-4.65 1.31 2.7zm19.22-9.3l-1.31-2.7 9.61-4.65 1.31 2.7zm19.22-9.3l-1.31-2.7 9.61-4.65 1.31 2.7zm19.22-9.3l-1.31-2.7 9.61-4.65 1.31 2.7zm19.22-9.3l-1.31-2.7 9.61-4.65 1.31 2.7zm19.22-9.3l-1.31-2.7 9.61-4.65 1.31 2.7z"/></svg>