<svg id="Capa_1" data-name="Capa 1" xmlns="http://www.w3.org/2000/svg" viewBox="0 0 2016.17 2016.17"><defs><style>.cls-1{fill:#3c3c3b;}</style></defs><title>lineas</title><path class="cls-1" d="M391.23 890.61l-2.3-1.92 6.84-8.19 2.3 1.92zm13.68-16.39l-2.3-1.92 6.84-8.19 2.3 1.92zm13.68-16.39l-2.3-1.92 6.84-8.19 2.3 1.92zm13.68-16.39l-2.3-1.92 6.84-8.19 2.3 1.92zM446 825.06l-2.3-1.92 6.84-8.19 2.3 1.92zm13.68-16.39l-2.3-1.92 6.84-8.19 2.3 1.92zm13.68-16.39l-2.3-1.92 6.84-8.19 2.3 1.92zM487 775.91l-2.3-1.92 6.84-8.19 2.3 1.92zm13.68-16.39l-2.3-1.92 6.84-8.19 2.3 1.92zm13.68-16.39l-2.3-1.92 6.84-8.19 2.3 1.92zm13.68-16.39l-2.3-1.92 6.84-8.19 2.3 1.92zm13.68-16.39l-2.3-1.92 6.84-8.19 2.3 1.92zM555.44 694l-2.3-1.92 6.84-8.19 2.3 1.92zm13.68-16.39l-2.3-1.92 6.84-8.19 2.3 1.92zm13.68-16.39l-2.3-1.92 6.84-8.19 2.3 1.92zm13.68-16.39l-2.3-1.92 6.84-8.19 2.3 1.92zm13.68-16.39l-2.3-1.92 6.84-8.19 2.3 1.92zm13.7-16.44l-2.3-1.92 6.84-8.19 2.3 1.92zm13.68-16.39l-2.3-1.92 6.84-8.19 2.3 1.92zm13.68-16.39l-2.3-1.92 4.8-5.75 2.3 1.92z"/></svg>