<svg id="Capa_1" data-name="Capa 1" xmlns="http://www.w3.org/2000/svg" viewBox="0 0 2016.17 2016.17"><defs><style>.cls-1{fill:#3c3c3b;}</style></defs><title>lineas</title><path class="cls-1" d="M1020.57 858.17l-6.42-6.46 2.13-2.11 6.42 6.46zm-13.95-14l-7.52-7.57 2.13-2.11 7.52 7.57zm-15-15.14l-7.62-7.61 2.13-2.11 7.52 7.57zm-15-15.14l-7.62-7.61 2.13-2.12 7.52 7.57zm-15-15.14l-7.62-7.61 2.13-2.11 7.52 7.57zm-15-15.14L938.9 776l2.13-2.11 7.52 7.57zm-15-15.14l-7.52-7.57 2.13-2.11 7.52 7.57zm-15-15.14l-7.52-7.57 2.13-2.12 7.52 7.57zm-15-15.14l-7.52-7.57 2.13-2.11 7.52 7.57zm-15-15.14l-7.52-7.57 2.13-2.11 7.52 7.57zm-15-15.14l-7.52-7.57 2.13-2.11 7.52 7.57zm-15-15.14l-7.52-7.57 2.13-2.11 7.52 7.57zm-15-15.14l-8.06-7.63 2.13-2.11 7.52 7.57zm-15-15.14l-7.52-7.57 2.13-2.11 7.52 7.57zm-15-15.14l-7.52-7.57 2.13-2.12 7.52 7.57zm-15-15.14l-7.52-7.57 2.13-2.12 7.52 7.57zm-15-15.14l-7.52-7.57 2.13-2.11 7.52 7.57zm-15-15.14l-7.52-7.57 2.13-2.11 7.52 7.57zm-15-15.14l-7.52-7.57 1.3-2.22 7.52 7.57zm-15-15.14l-8.39-7.65 2.13-2.11 7.52 7.57z"/></svg>