<svg id="Capa_1" data-name="Capa 1" xmlns="http://www.w3.org/2000/svg" viewBox="0 0 2016.17 2016.17"><defs><style>.cls-1{fill:#3c3c3b;}</style></defs><title>lineas</title><path class="cls-1" d="M1063.11 1472.44l-8.67-6.23 1.75-2.44 8.67 6.23zm-17.34-12.44l-8.67-6.23 1.75-2.44 8.67 6.23zm-17.34-12.45l-8.67-6.23 1.75-2.44 8.67 6.23zm-17.34-12.45l-8.67-6.23 1.75-2.44 8.67 6.23zm-17.34-12.45l-8.67-6.23 1.75-2.44 8.67 6.23zm-17.34-12.45l-8.67-6.23 1.75-2.44 8.67 6.23zm-17.34-12.45l-8.67-6.23 1.75-2.44 8.67 6.23zm-17.34-12.45l-8.67-6.23 1.75-2.44 8.67 6.23zm-17.34-12.45l-8.67-6.23 1.75-2.44 8.67 6.23zM907 1360.37l-8.67-6.23 1.75-2.44 8.67 6.23zm-17.34-12.45l-8.67-6.23 1.75-2.44 8.67 6.23zm-17.34-12.45l-8.67-6.23 1.75-2.44 8.67 6.23zM855 1323l-8.67-6.23 1.75-2.44 8.67 6.23zm-17.34-12.45l-8.67-6.23 1.75-2.44 8.67 6.23zm-17.34-12.45l-8.67-6.23 1.75-2.44 8.67 6.23zM803 1285.65l-8.67-6.23 1.75-2.44 8.67 6.23zm-17.34-12.45L777 1267l1.75-2.44 8.67 6.23zm-17.34-12.45l-8.67-6.23 1.75-2.44 8.67 6.23zM751 1248.3l-8.67-6.23 1.75-2.44 8.67 6.23zm-17.34-12.45l-8.67-6.23 1.75-2.44 8.67 6.23zm-17.34-12.45l-8.67-6.23 1.75-2.44 8.67 6.23zM699 1210.94l-8.67-6.23 1.75-2.44 8.67 6.23zm-17.34-12.45l-8.67-6.23 1.75-2.44 8.67 6.23zM664.28 1186l-8.67-6.23 1.75-2.44 8.67 6.23zm-17.34-12.45l-8.67-6.23 1.75-2.44 8.67 6.23zm-17.34-12.45l-8.67-6.23 1.75-2.44 8.67 6.23zm-17.34-12.45l-8.67-6.23 1.75-2.44 8.67 6.23zm-17.34-12.45l-8.67-6.23 1.75-2.44 8.67 6.23zm-17.34-12.45l-8.67-6.23 1.75-2.44 8.67 6.23zm-17.34-12.45l-8.67-6.23 1.75-2.44 8.67 6.23zm-17.34-12.45l-8.67-6.23 1.75-2.44 8.67 6.23zm-17.34-12.45l-8.67-6.23 1.75-2.44 8.67 6.23zm-17.34-12.4l-8.67-6.23 1.75-2.44 8.67 6.23zm-17.34-12.45l-8.67-6.23 1.75-2.44 8.67 6.23zm-17.34-12.45l-8.67-6.23 1.75-2.44 8.67 6.23z"/></svg>