<svg id="Capa_1" data-name="Capa 1" xmlns="http://www.w3.org/2000/svg" viewBox="0 0 2016.17 2016.17"><defs><style>.cls-1{fill:#3c3c3b;}</style></defs><title>lineas</title><path class="cls-1" d="M496.446 978.42l5.322-.445.25 2.99-5.322.445zM512.52 980.09l-.25-3 10.52-.88.25 3zm21-1.76l-.25-3 10.52-.88.25 3zm21-1.76l-.25-3 10.52-.88.25 3zm21-1.76l-.25-3 10.52-.88.25 3zm21-1.76l-.25-3 10.52-.88.25 3zm21-1.76l-.25-3 10.52-.88.25 3zm21-1.76l-.25-3 10.52-.88.25 3zm21-1.76l-.25-3 10.52-.88.25 3zm21-1.76l-.25-3 10.52-.88.25 3zm21-1.76l-.25-3 10.52-.88.25 3zm21-1.76l-.25-3 10.52-.88.25 3zm21-1.76l-.25-3 10.52-.88.25 3zm21-1.76l-.25-3 10.52-.88.25 3zm21-1.76l-.25-3 10.52-.88.25 3zm21-1.76l-.25-3 10.52-.88.25 3zm21-1.76l-.25-3 10.52-.88.25 3zm21-1.76l-.25-3 10.52-.88.25 3zm21-1.76l-.25-3 10.52-.88.25 3zm21-1.76l-.25-3 10.52-.88.25 3zm21-1.76l-.25-3 10.52-.88.25 3zm21-1.76l-.25-3 10.52-.88.25 3zm21-1.76l-.25-3 10.52-.88.25 3zM975.314 938.365l5.32-.445.25 2.99-5.32.445z"/></svg>