<svg id="Capa_1" data-name="Capa 1" xmlns="http://www.w3.org/2000/svg" viewBox="0 0 2016.17 2016.17"><defs><style>.cls-1{fill:#3c3c3b;}</style></defs><title>lineas</title><path class="cls-1" d="M420.884 1086.38l2.91-.78 1.39 5.18-2.91.78zM502.13 1384.16l-2.88-10.65 2.9-.78 2.88 10.65zm-5.76-21.3l-2.88-10.65 2.9-.78 2.88 10.65zm-5.76-21.3l-2.88-10.65 2.9-.78 2.88 10.65zm-5.76-21.3l-2.85-10.64 2.9-.78 2.88 10.65zm-5.76-21.3l-2.88-10.65 2.9-.78 2.88 10.65zm-5.76-21.3l-2.88-10.66 2.9-.78 2.88 10.65zm-5.76-21.3l-2.88-10.65 2.9-.78 2.88 10.65zm-5.76-21.3l-2.88-10.65 2.9-.78 2.88 10.65zm-5.76-21.3l-2.88-10.65 2.9-.78 2.88 10.65zm-5.76-21.3l-2.88-10.65 2.9-.78 2.88 10.65zm-5.76-21.3l-2.88-10.65 2.9-.78 2.88 10.65zm-5.76-21.3l-2.88-10.65 2.9-.78 2.88 10.65zM433 1128.6l-2.88-10.65 2.9-.78 2.88 10.65zm-5.76-21.3l-2.88-10.65 2.9-.78 2.88 10.65zM505.866 1401.898l2.91-.78 1.388 5.18-2.91.78z"/></svg>