<svg id="Capa_1" data-name="Capa 1" xmlns="http://www.w3.org/2000/svg" viewBox="0 0 459.32 380.69"><defs><style>.cls-1{fill:#3c3c3b;}</style></defs><title>logo-bikas-1</title><path class="cls-1" d="M36.47 335.76a55.2 55.2 0 0 1-7.6-.57 29.82 29.82 0 0 1-16-7.65 31.08 31.08 0 0 1-6.59-8.92A54.39 54.39 0 0 1 1.71 305 95.17 95.17 0 0 1 0 285.57V232.4A92 92 0 0 1 1.76 213a53.58 53.58 0 0 1 4.66-13.54 29.58 29.58 0 0 1 6.68-8.75 30 30 0 0 1 7.82-5 30.91 30.91 0 0 1 8-2.24 57 57 0 0 1 7.43-.53 39.16 39.16 0 0 1 15 2.5 24.74 24.74 0 0 1 9.65 6.92 25.94 25.94 0 0 1 5.19 10.15 47.88 47.88 0 0 1 1.54 12.3 76.44 76.44 0 0 1-.48 8.92q-.48 4.09-1.45 9H47.37v-7.63q0-12.39-2.72-18.54t-8-6.15a11.87 11.87 0 0 0-5.54 1.23 9.63 9.63 0 0 0-4 4.17 25.94 25.94 0 0 0-2.42 7.78 72.42 72.42 0 0 0-.83 12v68.55a85.79 85.79 0 0 0 .66 11.69 22.92 22.92 0 0 0 2.15 7.47 8.9 8.9 0 0 0 3.91 4 13.16 13.16 0 0 0 5.84 1.19 9.32 9.32 0 0 0 4.22-1 9.78 9.78 0 0 0 3.56-3.16 17.41 17.41 0 0 0 2.46-5.45 29 29 0 0 0 .92-7.78v-14.65h20.89v13.89q0 18.11-8.26 26.72t-23.74 8.7zM86.4 184.32h22.76v132.19h31v17.93H86.4V184.32zM154.6 184.32h55.63v17.93h-32.87v44.91h25.4v17.93h-25.4v51.42h33.75v17.93H154.6V184.32zM216.39 184.32h23.29l16.52 118.92h1l16.61-118.92H297l-27.35 150.12h-26zM311.48 184.32h55.63v17.93h-32.86v44.91h25.4v17.93h-25.4v51.42H368v17.93h-56.52V184.32zM384.43 184.32h24.7q4.22 0 9.27.35a53 53 0 0 1 10.11 1.71 40.46 40.46 0 0 1 9.76 4.09 28.69 28.69 0 0 1 8.35 7.47 37.4 37.4 0 0 1 5.84 11.91 59.78 59.78 0 0 1 2.2 17.36V231q0 17.14-4.92 27.91t-14.5 15.51l24.08 60h-24.09l-20-56.16h-8.53v56.16h-22.27v-150.1zm25.75 77.52a33.58 33.58 0 0 0 10.11-1.32 13.83 13.83 0 0 0 6.68-4.44 19.61 19.61 0 0 0 3.69-8.26 59.76 59.76 0 0 0 1.14-12.7v-11.86a41.72 41.72 0 0 0-1.05-10 15.66 15.66 0 0 0-3.56-6.94 15 15 0 0 0-6.64-4 34.64 34.64 0 0 0-10.37-1.32h-3.43v60.91h3.43zM276.83 374.64a3.26 3.26 0 0 1-3.54-2.78h-.05q-.16.91-1.89 8.82h-1.26l4.27-20h1l-.57 3.48h.08a8.79 8.79 0 0 1 2.48-2.84 5.05 5.05 0 0 1 2.9-.9 3.17 3.17 0 0 1 2.64 1.17 5.74 5.74 0 0 1 .93 3.59 12.32 12.32 0 0 1-.91 4.71 8.56 8.56 0 0 1-2.51 3.52 5.59 5.59 0 0 1-3.57 1.23zm3.17-13.12a3.94 3.94 0 0 0-2.21.74 7.84 7.84 0 0 0-2 2.13 10.16 10.16 0 0 0-1.4 3 10.31 10.31 0 0 0-.46 2.65 3.91 3.91 0 0 0 .78 2.55 2.61 2.61 0 0 0 2.14 1 4.36 4.36 0 0 0 2.86-1.07 7.5 7.5 0 0 0 2.08-3.09 11.16 11.16 0 0 0 .8-4.13q-.04-3.78-2.59-3.78zM293.34 360.37a4.53 4.53 0 0 1 3.54 1.38 5.45 5.45 0 0 1 1.25 3.8 12 12 0 0 1-.91 4.68 7.57 7.57 0 0 1-2.48 3.32 6 6 0 0 1-3.63 1.14 4.45 4.45 0 0 1-3.55-1.39 5.87 5.87 0 0 1-1.21-4 11.23 11.23 0 0 1 .93-4.54 7.75 7.75 0 0 1 2.5-3.26 5.92 5.92 0 0 1 3.56-1.13zm-.1 1.09a4.44 4.44 0 0 0-2.83 1 6.78 6.78 0 0 0-2 2.86 10.46 10.46 0 0 0-.75 3.94q0 4.34 3.58 4.34a4.5 4.5 0 0 0 2.86-1 6.64 6.64 0 0 0 2-2.89 11.49 11.49 0 0 0 .74-4.2 4.41 4.41 0 0 0-.93-3 3.36 3.36 0 0 0-2.67-1.05zM310 374.44l-.76-8.71q-.18-2.84-.18-3.38H309a30.36 30.36 0 0 1-1.83 3.68l-4.52 8.4h-1.49l-.25-13.8h1.17l.17 10.42v2h.08q.77-1.7 1.9-3.77l4.74-8.65h1l.81 8.65q.18 1.87.18 3.77h.04l.3-.77 1.28-3 4.06-8.65h1.22l-6.45 13.8H310zM323 374.69a4.34 4.34 0 0 1-3.43-1.39 5.65 5.65 0 0 1-1.23-3.88 11.09 11.09 0 0 1 .9-4.41 8.34 8.34 0 0 1 2.48-3.35 5.5 5.5 0 0 1 3.48-1.24 3.33 3.33 0 0 1 2.31.77 2.69 2.69 0 0 1 .86 2.11 3.83 3.83 0 0 1-2.08 3.5 12.52 12.52 0 0 1-6.16 1.21h-.42a9.26 9.26 0 0 0-.08 1.24 4.79 4.79 0 0 0 .94 3.19 3.37 3.37 0 0 0 2.7 1.1 7.75 7.75 0 0 0 3.5-.93v1.19a8.47 8.47 0 0 1-3.77.89zm2.06-13.18A4.27 4.27 0 0 0 322 363a8.57 8.57 0 0 0-2.06 3.92h.62q6.56 0 6.56-3.43a1.9 1.9 0 0 0-.55-1.4 2 2 0 0 0-1.51-.57zM337.89 360.4a6.23 6.23 0 0 1 1.56.18l-.27 1.18a4.75 4.75 0 0 0-1.43-.19 3.72 3.72 0 0 0-2.27.81 7.25 7.25 0 0 0-1.94 2.44 13.53 13.53 0 0 0-1.27 3.52l-1.27 6.1h-1.24l2.93-13.8h1l-.37 2.59h.08a11.45 11.45 0 0 1 1.56-1.72 5.17 5.17 0 0 1 1.35-.82 4.11 4.11 0 0 1 1.58-.29zM344.33 374.69a4.34 4.34 0 0 1-3.43-1.39 5.65 5.65 0 0 1-1.23-3.88 11.09 11.09 0 0 1 .9-4.41 8.34 8.34 0 0 1 2.48-3.35 5.5 5.5 0 0 1 3.48-1.24 3.33 3.33 0 0 1 2.31.77 2.69 2.69 0 0 1 .86 2.11 3.83 3.83 0 0 1-2.08 3.5 12.52 12.52 0 0 1-6.16 1.21h-.42a9.26 9.26 0 0 0-.08 1.24 4.79 4.79 0 0 0 .94 3.19 3.37 3.37 0 0 0 2.7 1.1 7.75 7.75 0 0 0 3.5-.93v1.19a8.47 8.47 0 0 1-3.77.89zm2.06-13.18a4.27 4.27 0 0 0-3.09 1.49 8.57 8.57 0 0 0-2.06 3.92h.62q6.56 0 6.56-3.43a1.9 1.9 0 0 0-.55-1.4 2 2 0 0 0-1.48-.57zM358.48 360.42a3.26 3.26 0 0 1 3.52 2.78h.05q.15-.84 1.82-8.52h1.26L361 374.44h-1l.57-3.48h-.08q-2.2 3.73-5.38 3.73-3.57 0-3.57-4.75a12.42 12.42 0 0 1 .91-4.7 8.51 8.51 0 0 1 2.51-3.54 5.6 5.6 0 0 1 3.52-1.28zm-3.16 13.13a3.94 3.94 0 0 0 2.27-.79 7.93 7.93 0 0 0 2-2.13 10.41 10.41 0 0 0 1.35-2.93 10 10 0 0 0 .46-2.66 3.93 3.93 0 0 0-.78-2.56 2.61 2.61 0 0 0-2.14-1 4.34 4.34 0 0 0-2.84 1.05 7.57 7.57 0 0 0-2.08 3.08 11.08 11.08 0 0 0-.81 4.16q.01 3.78 2.57 3.78zM377.65 374.64a3.42 3.42 0 0 1-3.59-2.86H374l-.7 2.65h-1l4.15-19.75h1.21q-1.66 8-2.06 9.53h.08a9.21 9.21 0 0 1 2.53-2.91 5 5 0 0 1 2.93-.93q3.57 0 3.57 4.76a12.09 12.09 0 0 1-1 4.82 8.44 8.44 0 0 1-2.55 3.47 5.62 5.62 0 0 1-3.51 1.22zm3.17-13.13a4 4 0 0 0-2.29.78 7.79 7.79 0 0 0-2 2.15 11.55 11.55 0 0 0-1.8 5.6 3.79 3.79 0 0 0 .81 2.57 2.66 2.66 0 0 0 2.11.93 4.34 4.34 0 0 0 2.84-1.05 7.54 7.54 0 0 0 2.08-3.11 11.15 11.15 0 0 0 .81-4.13 5.1 5.1 0 0 0-.62-2.84 2.16 2.16 0 0 0-1.94-.89zM387.47 360.64h1.27l1 7q.65 4.46.7 5.7h.14q.55-1.33 2.36-4.66l4.42-8h1.31L389.66 377a11.41 11.41 0 0 1-1.55 2.26 5.08 5.08 0 0 1-1.45 1 4.31 4.31 0 0 1-1.86.38 5 5 0 0 1-1.64-.27v-1.17a4.89 4.89 0 0 0 1.74.34 3.07 3.07 0 0 0 1.87-.63 6.36 6.36 0 0 0 1.65-2.09l1.27-2.34zM406.2 352.76h3.33q.74 0 1.52.05a10.15 10.15 0 0 1 1.54.22 6.46 6.46 0 0 1 1.42.49 3.85 3.85 0 0 1 1.17.87 4.05 4.05 0 0 1 .8 1.35 5.61 5.61 0 0 1 .3 1.94v1.05a4.87 4.87 0 0 1-.25 1.59 4.69 4.69 0 0 1-.65 1.28 3.93 3.93 0 0 1-.93.91 3.09 3.09 0 0 1-1.07.49v.1a3.52 3.52 0 0 1 2.43 1.53 5.63 5.63 0 0 1 .82 3.17v1.1a7.21 7.21 0 0 1-.26 2.05 4.6 4.6 0 0 1-.73 1.49 4 4 0 0 1-1.12 1 5.8 5.8 0 0 1-1.42.62 9.07 9.07 0 0 1-1.65.3q-.88.08-1.8.08h-3.45v-21.68zm3.86 9.28a4.3 4.3 0 0 0 1.21-.16 2.45 2.45 0 0 0 .93-.5 2.18 2.18 0 0 0 .6-.88 3.6 3.6 0 0 0 .21-1.3v-.89a5.35 5.35 0 0 0-.15-1.35 2.44 2.44 0 0 0-.5-1 2.18 2.18 0 0 0-.91-.62 4 4 0 0 0-1.38-.21h-.63V362h.63zm.3 10.12a4 4 0 0 0 1.2-.17 2.41 2.41 0 0 0 .93-.53 2.38 2.38 0 0 0 .6-.92 3.76 3.76 0 0 0 .21-1.32v-1.69a5.43 5.43 0 0 0-.15-1.35 2.39 2.39 0 0 0-.5-1 2.21 2.21 0 0 0-.91-.61 3.92 3.92 0 0 0-1.37-.21h-.94v7.79h.94zM419.49 352.76h3.29v21.68h-3.29v-21.68zM426.49 352.76h3.29v9.47h.1l3.76-9.47h3.28l-4.19 10.17 4.66 11.51h-3.52l-4-10.32h-.1v10.32h-3.29v-21.68zM441.63 352.76h3.78l4 21.68h-3.31l-.6-3.88h-4l-.5 3.88h-3.34zm3.49 15.32l-1.52-10.8h-.14l-1.54 10.8h3.2zM450.63 370.78a5.53 5.53 0 0 1 .11-1.1 8.25 8.25 0 0 1 .21-.85h2.26a11.11 11.11 0 0 0 .1 1.59 3 3 0 0 0 .31 1 1.26 1.26 0 0 0 .58.55 2.12 2.12 0 0 0 .88.17 1.28 1.28 0 0 0 1.05-.41 1.44 1.44 0 0 0 .33-.94 1.85 1.85 0 0 0-.08-.53 2.72 2.72 0 0 0-.22-.51 3.92 3.92 0 0 0-.34-.53l-.46-.58-2.36-2.76q-.46-.57-.88-1.16a9.55 9.55 0 0 1-.75-1.22 7.18 7.18 0 0 1-.52-1.31 5.2 5.2 0 0 1-.2-1.45A4.13 4.13 0 0 1 451 359a3.55 3.55 0 0 1 .94-1.24 3.91 3.91 0 0 1 1.36-.74 5.48 5.48 0 0 1 1.64-.24 6 6 0 0 1 1.71.23 3.63 3.63 0 0 1 1.31.69 3 3 0 0 1 .84 1.14 4 4 0 0 1 .29 1.58 6.4 6.4 0 0 1-.11 1.18q-.11.57-.21 1h-2.22q0-.86-.08-1.51a3.92 3.92 0 0 0-.23-1.07 1.42 1.42 0 0 0-.47-.64 1.3 1.3 0 0 0-.78-.22 1.62 1.62 0 0 0-.7.13 1.25 1.25 0 0 0-.45.35 1.29 1.29 0 0 0-.24.48 2.13 2.13 0 0 0-.07.55 2.27 2.27 0 0 0 .29 1.13 8.85 8.85 0 0 0 .77 1.13l2.56 3q.28.34.65.83a9.34 9.34 0 0 1 .7 1.08 7.22 7.22 0 0 1 .56 1.29 4.89 4.89 0 0 1-.06 3.14 3.42 3.42 0 0 1-.86 1.29 3.94 3.94 0 0 1-1.4.83 5.71 5.71 0 0 1-1.9.29 6.68 6.68 0 0 1-1.65-.2 3.57 3.57 0 0 1-1.35-.65 3.09 3.09 0 0 1-.9-1.19 4.44 4.44 0 0 1-.31-1.86zM123.35 151.15l-11.83-32.46 1.17-.13 5.16-21.91 37.09 18.61zm-10.45-31.6l10.81 29.68 29.61-33.65-34.79-17.47-5 21.37z"/><path class="cls-1" d="M154.25 116l-37.4-18.73 43-13.33 7 17.77zm-34.73-18.51l34.48 17.3 11.69-13.28-6.44-16.34z"/><path class="cls-1" d="M205.91 86.62L158.67 85l17.22-27.76zm-45.48-2.53l42.94 1.44-27.29-26.68z"/><path class="cls-1" d="M179.08 128.5l-25.76-12.93 12.37-14.06L158.81 84l46.71 1.57zm-24.15-13.24l23.78 11.93 25-40.65-43.47-1.46 6.55 16.63z"/><path class="cls-1" d="M111.88 119.66L98.74 83.59l.53-1.59 63.26 2.13-43.92 13.64-5.11 21.7zM99.8 83.58l12.75 35h.14L117.77 97l38.8-12L100 83.06z"/><path class="cls-1" d="M159.45 85.67l-23.92-60.73L166 27.12l10.52 31-.12.2zM137 26l22.61 57.4L175.43 58l-10.15-29.93z"/><path class="cls-1" d="M166.36 28.15l-31.2-2.24 19-19 7.46 7.46v.11zm-28.95-3.08l27.52 2-4.13-12.2-6.59-6.59zM85.36 122.57l13.9-40.48 13.64 37.45zm13.92-37.48L86.81 121.4l24.71-2.71z"/><path class="cls-1" d="M190.35 152.67H75l10.69-31.15 26.83-2.95 11.17 30.65L154 114.79l25.28 12.68zm-113.93-1h112.4l-10.31-23.46L154.25 116l-30.9 35.11-11.47-31.49-25.42 2.79z"/><path class="cls-1" d="M197.35 152.67h-8.09l-10.93-24.87 26.52-43 12.35 53.5zm-7.44-1H197l19.06-13.81-11.63-50.49-25 40.51z"/><path class="cls-1" d="M204.93 87.06L175.19 58l42.21-27.84zm-28.15-28.92l27.57 27 11.55-52.73z"/><path class="cls-1" d="M217.14 142.45l-13-56.37v-.11l13-59.33v115.81zm-12-56.38l11 47.6V35.88z"/><path class="cls-1" d="M175.72 58.83L164.93 27l53.22 3.82zm-9.36-30.68l9.89 29.13 38.89-25.64z"/><path class="cls-1" d="M217.95 31.85l-52.67-3.78-4.62-13.61 11.16-11.15h17.59zM166 27.12l49.33 3.54L189 4.31h-16.77l-10.42 10.43zM160.82 85.1L98.73 83l23.13-36zm-60.3-3l57.76 1.9L122 48.59z"/><path class="cls-1" d="M98.63 83.28l-4.79-13.12L88 57.13l40.31-40.31 8.6 8.6L99.94 83zm-9.42-25.93l5.56 12.44 4.49 12.33h.05l22-34.23-11.44-11.2zM110.58 36l11.29 11 13.79-21.45-7.33-7.33z"/><path class="cls-1" d="M160.87 86.55l-39.56-38.68 15.08-23.47zm-38.28-38.82l35.64 34.84-22.05-56zM48 94.83l32.5-32.5 14.24 7.31 4.89 13.43zm32.67-31.28L51.13 93.08l47.15-10.74-4.37-12z"/><path class="cls-1" d="M63 125L48.85 93.6l50.41-11.49.54 1.47-13.34 38.87zM50.26 94.31L63.58 124l22.13-2.43 13-37.93-.11-.31z"/><path class="cls-1" d="M75.79 153.53l-13.25-29.46 24.27-2.67zM64 124.91l11.64 25.9 9.7-28.24z"/><path class="cls-1" d="M77.3 154.45L49.05 126.2V91.63zm-27.25-28.66l24.1 24.1-24.1-53.6v29.5zM328.13 151.15l-31.58-35.89 37.09-18.61 5.16 21.91 1.17.13zm-30-35.58l29.61 33.65 10.81-29.68-.6-.07-5-21.37z"/><path class="cls-1" d="M297.23 116l-12.6-14.32 7-17.77 43 13.33zm-11.44-14.52l11.68 13.28L332 97.49l-39.78-12.32z"/><path class="cls-1" d="M245.57 86.62l30-29.35L292.8 85zm29.83-27.76l-27.29 26.67L291 84.09z"/><path class="cls-1" d="M272.39 128.5L246 85.6l46.67-1.6-6.89 17.48 12.37 14.06zm-24.68-42l25 40.65 23.78-11.93-11.92-13.54 6.55-16.63z"/><path class="cls-1" d="M339.6 119.66l-1.62-.18-5.11-21.7-43.93-13.62L352.2 82l.54 1.56zm-.81-1.09h.14l12.75-35-.18-.53L294.9 85l38.8 12z"/><path class="cls-1" d="M292 85.67l-17.06-27.55 10.52-31 30.48-2.19zM276 58l15.78 25.45L314.43 26l-28.24 2z"/><path class="cls-1" d="M285.11 28.15l4.69-13.82 7.46-7.46 19 19zm5.56-13.28L286.54 27l27.52-2-16.79-16.72zM366.12 122.57l-27.54-3 13.64-37.45zM340 118.69l24.71 2.71-12.52-36.31z"/><path class="cls-1" d="M376.45 152.67H261.13l11.06-25.19 25.28-12.68 30.3 34.43 11.17-30.65 26.83 2.95zm-113.79-1h112.39l-10-29.22-25.42-2.79-11.47 31.49L297.23 116 273 128.21z"/><path class="cls-1" d="M262.22 152.67h-8.09l-19.86-14.39 12.35-53.5 26.52 43zm-7.76-1h7.11L272 127.88l-25-40.51-11.66 50.48z"/><path class="cls-1" d="M246.54 87.06l-12.46-56.9L276.28 58zm-11-54.71l11.55 52.73 27.57-27z"/><path class="cls-1" d="M234.33 142.45V26.64l13 59.44v.11zm1-106.57v97.8l11-47.6z"/><path class="cls-1" d="M275.76 58.83l-42.43-28L286.54 27zm-39.42-27.18l38.89 25.64 9.89-29.13z"/><path class="cls-1" d="M233.53 31.85l28.54-28.54h17.59l11.15 11.15-4.61 13.61zm29-27.54l-26.4 26.35 49.33-3.54 4.21-12.39-10.42-10.42h-16.77zM290.65 85.1l39-38.09 23.13 36zm38.78-36.52L293.19 84 351 82.07z"/><path class="cls-1" d="M352.85 83.28l-1.31-.3-37-57.56 8.6-8.6 40.3 40.31-5.84 13.07zm-.69-1.18h.05l4.48-12.29 5.57-12.47-20.65-20.65-11.45 11.18zm-36.33-56.54L329.61 47l11.29-11-17.75-17.76z"/><path class="cls-1" d="M290.6 86.55l24.48-62.15 15.08 23.47zm24.7-60l-22.05 56 35.64-34.84zM403.5 94.83l-51.63-11.77 4.89-13.43 14.24-7.3zm-50.3-12.49l47.15 10.75-29.54-29.54-13.25 6.8z"/><path class="cls-1" d="M388.5 125l-23.5-2.55-13.32-38.87.54-1.47 50.41 11.49zm-22.74-3.5l22.13 2.5 13.33-29.64-48.37-11-.11.31z"/><path class="cls-1" d="M375.69 153.53l-11-32.12 24.27 2.67zm-9.57-31l9.7 28.24 11.64-25.9z"/><path class="cls-1" d="M374.18 154.45l28.24-62.82v34.57zm27.24-58.16l-24.1 53.6 24.1-24.1v-29.5z"/><circle class="cls-1" cx="98.4" cy="83.59" r="3.81"/><circle class="cls-1" cx="86.08" cy="121.99" r="3.81"/><circle class="cls-1" cx="63.28" cy="124.49" r="3.81"/><circle class="cls-1" cx="112.21" cy="119.12" r="3.81"/><circle class="cls-1" cx="118.14" cy="97.77" r="3.81"/><circle class="cls-1" cx="159.55" cy="83.59" r="3.81"/><circle class="cls-1" cx="166.51" cy="101.58" r="3.81"/><circle class="cls-1" cx="154.13" cy="116.94" r="3.81"/><circle class="cls-1" cx="178.9" cy="128.3" r="3.81"/><circle class="cls-1" cx="204.64" cy="86.08" r="3.81"/><circle class="cls-1" cx="175.98" cy="58.06" r="3.81"/><circle class="cls-1" cx="165.65" cy="27.6" r="3.81"/><circle class="cls-1" cx="121.95" cy="47.8" r="3.81"/><circle class="cls-1" cx="172.02" cy="3.81" r="3.81"/><circle class="cls-1" cx="188.94" cy="3.81" r="3.81"/><circle class="cls-1" cx="216.64" cy="31.26" r="3.81"/><circle class="cls-1" cx="161.23" cy="14.6" r="3.81"/><circle class="cls-1" cx="154.78" cy="7.63" r="3.81"/><circle class="cls-1" cx="136.29" cy="25.49" r="3.81"/><circle class="cls-1" cx="128.32" cy="17.53" r="3.81"/><circle class="cls-1" cx="88.61" cy="57.24" r="3.81"/><circle class="cls-1" cx="94.31" cy="69.99" r="3.81"/><circle class="cls-1" cx="80.57" cy="62.94" r="3.81"/><circle class="cls-1" cx="75.72" cy="152.17" r="3.81"/><circle class="cls-1" cx="197.77" cy="152.17" r="3.81"/><circle class="cls-1" cx="216.64" cy="138.06" r="3.81"/><circle class="cls-1" cx="353.07" cy="83.59" r="3.81"/><circle class="cls-1" cx="365.39" cy="121.99" r="3.81"/><circle class="cls-1" cx="388.2" cy="124.49" r="3.81"/><circle class="cls-1" cx="339.26" cy="119.12" r="3.81"/><circle class="cls-1" cx="333.34" cy="97.77" r="3.81"/><circle class="cls-1" cx="291.92" cy="83.59" r="3.81"/><circle class="cls-1" cx="284.96" cy="101.58" r="3.81"/><circle class="cls-1" cx="297.35" cy="116.94" r="3.81"/><circle class="cls-1" cx="272.58" cy="128.3" r="3.81"/><circle class="cls-1" cx="246.84" cy="86.08" r="3.81"/><circle class="cls-1" cx="275.49" cy="58.06" r="3.81"/><circle class="cls-1" cx="285.83" cy="27.6" r="3.81"/><circle class="cls-1" cx="329.52" cy="47.8" r="3.81"/><circle class="cls-1" cx="279.45" cy="3.81" r="3.81"/><circle class="cls-1" cx="262.54" cy="3.81" r="3.81"/><circle class="cls-1" cx="234.83" cy="31.26" r="3.81"/><circle class="cls-1" cx="290.24" cy="14.6" r="3.81"/><circle class="cls-1" cx="296.7" cy="7.63" r="3.81"/><circle class="cls-1" cx="315.19" cy="25.49" r="3.81"/><circle class="cls-1" cx="323.15" cy="17.53" r="3.81"/><circle class="cls-1" cx="362.86" cy="57.24" r="3.81"/><circle class="cls-1" cx="357.16" cy="69.99" r="3.81"/><circle class="cls-1" cx="370.9" cy="62.94" r="3.81"/><circle class="cls-1" cx="401.92" cy="93.96" r="3.81"/><circle class="cls-1" cx="401.92" cy="126" r="3.81"/><circle class="cls-1" cx="49.55" cy="93.96" r="3.81"/><circle class="cls-1" cx="49.55" cy="126" r="3.81"/><circle class="cls-1" cx="375.75" cy="152.17" r="3.81"/><circle class="cls-1" cx="253.7" cy="152.17" r="3.81"/><circle class="cls-1" cx="234.83" cy="138.06" r="3.81"/></svg>