<svg id="Capa_1" data-name="Capa 1" xmlns="http://www.w3.org/2000/svg" viewBox="0 0 465.83 402.99"><defs><style>.cls-1{fill:#3c3c3b;}</style></defs><title>logo-bikas-2</title><path class="cls-1" d="M36.47 358.06a55.22 55.22 0 0 1-7.6-.57 29.82 29.82 0 0 1-16-7.65 31.11 31.11 0 0 1-6.59-8.92 54.43 54.43 0 0 1-4.57-13.67A95.18 95.18 0 0 1 0 307.88v-53.17a92 92 0 0 1 1.76-19.38 53.58 53.58 0 0 1 4.66-13.54A29.58 29.58 0 0 1 13.1 213a29.94 29.94 0 0 1 7.82-5 30.91 30.91 0 0 1 8-2.24 57.06 57.06 0 0 1 7.43-.53 39.15 39.15 0 0 1 15 2.5 24.73 24.73 0 0 1 9.65 6.94 25.91 25.91 0 0 1 5.19 10.15 47.84 47.84 0 0 1 1.54 12.3 76.21 76.21 0 0 1-.48 8.92q-.48 4.09-1.45 9H47.37v-7.65q0-12.39-2.72-18.54t-8-6.15a11.87 11.87 0 0 0-5.54 1.23 9.63 9.63 0 0 0-4 4.17 26 26 0 0 0-2.42 7.78 72.54 72.54 0 0 0-.83 12v68.55a85.81 85.81 0 0 0 .66 11.69 22.89 22.89 0 0 0 2.15 7.47 8.9 8.9 0 0 0 3.91 4 13.16 13.16 0 0 0 5.85 1.19 9.32 9.32 0 0 0 4.22-1 9.77 9.77 0 0 0 3.56-3.16 17.39 17.39 0 0 0 2.46-5.45 29 29 0 0 0 .92-7.78v-14.63h20.88v13.89q0 18.11-8.26 26.72t-23.74 8.69zM86.4 206.63h22.76v132.19h31v17.93H86.4V206.63zM154.6 206.63h55.63v17.93h-32.87v44.91h25.4v17.93h-25.4v51.42h33.75v17.93H154.6V206.63zM216.39 206.63h23.29l16.52 118.91h1l16.61-118.92H297l-27.35 150.13h-26zM311.48 206.63h55.63v17.93h-32.86v44.91h25.4v17.93h-25.4v51.42H368v17.93h-56.52V206.63zM384.43 206.63h24.7q4.22 0 9.27.35a52.93 52.93 0 0 1 10.11 1.71 40.42 40.42 0 0 1 9.76 4.09 28.67 28.67 0 0 1 8.35 7.47 37.38 37.38 0 0 1 5.85 11.91 59.81 59.81 0 0 1 2.2 17.36v3.78q0 17.14-4.92 27.91t-14.5 15.51l24.08 60h-24.1l-20-56.16h-8.53v56.16h-22.27V206.63zm25.75 77.52a33.59 33.59 0 0 0 10.11-1.32 13.84 13.84 0 0 0 6.68-4.44 19.61 19.61 0 0 0 3.69-8.26 59.82 59.82 0 0 0 1.14-12.7v-11.87a41.72 41.72 0 0 0-1.05-10 15.66 15.66 0 0 0-3.56-6.94 15 15 0 0 0-6.63-4 34.64 34.64 0 0 0-10.37-1.32h-3.43v60.91h3.43zM283.34 396.95a3.26 3.26 0 0 1-3.54-2.78h-.05q-.16.91-1.89 8.82h-1.26l4.27-20h1l-.57 3.48h.08a8.8 8.8 0 0 1 2.48-2.84 5.06 5.06 0 0 1 2.9-.9 3.17 3.17 0 0 1 2.64 1.17 5.74 5.74 0 0 1 .93 3.59 12.32 12.32 0 0 1-.91 4.71 8.55 8.55 0 0 1-2.51 3.52 5.59 5.59 0 0 1-3.57 1.23zm3.17-13.13a3.94 3.94 0 0 0-2.21.74 7.84 7.84 0 0 0-2 2.13 10.16 10.16 0 0 0-1.4 3 10.31 10.31 0 0 0-.46 2.65 3.91 3.91 0 0 0 .78 2.55 2.61 2.61 0 0 0 2.14 1 4.36 4.36 0 0 0 2.86-1.07 7.5 7.5 0 0 0 2.08-3.09 11.16 11.16 0 0 0 .8-4.13q-.04-3.78-2.58-3.78zM299.85 382.68a4.53 4.53 0 0 1 3.54 1.38 5.45 5.45 0 0 1 1.25 3.8 12 12 0 0 1-.91 4.68 7.56 7.56 0 0 1-2.48 3.32 6 6 0 0 1-3.63 1.14 4.45 4.45 0 0 1-3.55-1.39 5.87 5.87 0 0 1-1.21-4 11.22 11.22 0 0 1 .93-4.54 7.75 7.75 0 0 1 2.5-3.26 5.92 5.92 0 0 1 3.56-1.13zm-.1 1.09a4.44 4.44 0 0 0-2.83 1 6.78 6.78 0 0 0-2 2.86 10.44 10.44 0 0 0-.75 3.94q0 4.34 3.58 4.34a4.5 4.5 0 0 0 2.86-1 6.64 6.64 0 0 0 2-2.89 11.51 11.51 0 0 0 .74-4.2 4.41 4.41 0 0 0-.93-3 3.36 3.36 0 0 0-2.67-1.05zM316.52 396.75l-.77-8.75q-.18-2.84-.18-3.38h-.07a30.36 30.36 0 0 1-1.83 3.68l-4.52 8.4h-1.49l-.25-13.8h1.17l.17 10.42v2h.08q.77-1.7 1.9-3.77l4.74-8.65h1l.81 8.65q.18 1.87.18 3.77h.08l.3-.77 1.28-3 4.06-8.65h1.22l-6.45 13.8h-1.37zM329.52 397a4.34 4.34 0 0 1-3.43-1.39 5.65 5.65 0 0 1-1.23-3.88 11.08 11.08 0 0 1 .9-4.41 8.33 8.33 0 0 1 2.48-3.35 5.5 5.5 0 0 1 3.48-1.24 3.33 3.33 0 0 1 2.31.77 2.69 2.69 0 0 1 .86 2.11 3.83 3.83 0 0 1-2.08 3.5 12.52 12.52 0 0 1-6.16 1.21h-.42a9.26 9.26 0 0 0-.08 1.24 4.78 4.78 0 0 0 .94 3.19 3.36 3.36 0 0 0 2.7 1.1 7.75 7.75 0 0 0 3.5-.93v1.19a8.47 8.47 0 0 1-3.77.89zm2.06-13.18a4.27 4.27 0 0 0-3.09 1.47 8.58 8.58 0 0 0-2.06 3.92h.57q6.56 0 6.56-3.43a1.9 1.9 0 0 0-.55-1.4 2 2 0 0 0-1.44-.56zM344.39 382.71a6.23 6.23 0 0 1 1.56.18l-.27 1.18a4.75 4.75 0 0 0-1.43-.19 3.72 3.72 0 0 0-2.27.81 7.23 7.23 0 0 0-1.94 2.44 13.49 13.49 0 0 0-1.27 3.52l-1.27 6.11h-1.24l2.93-13.8h1l-.37 2.59h.08a11.4 11.4 0 0 1 1.56-1.72 5.18 5.18 0 0 1 1.35-.82 4.12 4.12 0 0 1 1.58-.3zM350.84 397a4.34 4.34 0 0 1-3.43-1.39 5.65 5.65 0 0 1-1.23-3.88 11.08 11.08 0 0 1 .9-4.41 8.33 8.33 0 0 1 2.48-3.35 5.5 5.5 0 0 1 3.48-1.24 3.33 3.33 0 0 1 2.31.77 2.69 2.69 0 0 1 .86 2.11 3.83 3.83 0 0 1-2.08 3.5 12.52 12.52 0 0 1-6.16 1.21h-.42a9.26 9.26 0 0 0-.08 1.24 4.78 4.78 0 0 0 .94 3.19 3.36 3.36 0 0 0 2.7 1.1 7.75 7.75 0 0 0 3.5-.93v1.19a8.47 8.47 0 0 1-3.77.89zm2.06-13.18a4.27 4.27 0 0 0-3.09 1.47 8.58 8.58 0 0 0-2.06 3.92h.62q6.56 0 6.56-3.43a1.9 1.9 0 0 0-.55-1.4 2 2 0 0 0-1.48-.56zM365 382.73a3.26 3.26 0 0 1 3.54 2.78h.05q.15-.84 1.82-8.52h1.26l-4.19 19.75h-1l.57-3.48h-.08q-2.2 3.73-5.38 3.73-3.57 0-3.57-4.75a12.44 12.44 0 0 1 .91-4.7 8.52 8.52 0 0 1 2.51-3.54 5.6 5.6 0 0 1 3.56-1.27zm-3.16 13.13a4 4 0 0 0 2.27-.79 8 8 0 0 0 2-2.13 10.44 10.44 0 0 0 1.35-2.93 10 10 0 0 0 .46-2.66 3.92 3.92 0 0 0-.78-2.56 2.61 2.61 0 0 0-2.14-1 4.34 4.34 0 0 0-2.84 1.05 7.56 7.56 0 0 0-2.08 3.08 11.08 11.08 0 0 0-.81 4.16q0 3.78 2.56 3.78zM384.16 396.95a3.42 3.42 0 0 1-3.59-2.86h-.08l-.7 2.65h-1l4.13-19.74h1.21q-1.66 8-2.06 9.53h.08a9.2 9.2 0 0 1 2.53-2.91 5 5 0 0 1 2.93-.93q3.57 0 3.57 4.76a12.09 12.09 0 0 1-1 4.82 8.45 8.45 0 0 1-2.55 3.47 5.62 5.62 0 0 1-3.47 1.21zm3.17-13.13a4 4 0 0 0-2.29.78 7.78 7.78 0 0 0-2 2.15 11.55 11.55 0 0 0-1.8 5.6 3.79 3.79 0 0 0 .81 2.57 2.66 2.66 0 0 0 2.11.93 4.34 4.34 0 0 0 2.84-1.05 7.54 7.54 0 0 0 2.08-3.11 11.17 11.17 0 0 0 .81-4.13 5.1 5.1 0 0 0-.62-2.84 2.16 2.16 0 0 0-1.94-.9zM394 382.95h1.27l1 7q.65 4.46.7 5.7h.14q.54-1.33 2.36-4.66l4.42-8h1.31l-9.05 16.38a11.41 11.41 0 0 1-1.55 2.26 5.08 5.08 0 0 1-1.45 1 4.31 4.31 0 0 1-1.86.38 5 5 0 0 1-1.64-.27v-1.17a4.89 4.89 0 0 0 1.74.34 3.07 3.07 0 0 0 1.87-.63 6.37 6.37 0 0 0 1.65-2.09l1.27-2.34zM412.71 375.06H416q.74 0 1.52.05a10.19 10.19 0 0 1 1.54.22 6.48 6.48 0 0 1 1.42.49 3.83 3.83 0 0 1 1.17.87 4 4 0 0 1 .8 1.35 5.61 5.61 0 0 1 .3 1.94V381a4.9 4.9 0 0 1-.25 1.59 4.72 4.72 0 0 1-.65 1.28 4 4 0 0 1-.93.91 3.09 3.09 0 0 1-1.07.49v.1a3.52 3.52 0 0 1 2.43 1.53 5.63 5.63 0 0 1 .82 3.17v1.1a7.17 7.17 0 0 1-.26 2.05 4.58 4.58 0 0 1-.73 1.49 4 4 0 0 1-1.12 1 5.8 5.8 0 0 1-1.42.62 9.09 9.09 0 0 1-1.65.3q-.88.08-1.8.08h-3.45v-21.65zm3.86 9.28a4.3 4.3 0 0 0 1.21-.16 2.45 2.45 0 0 0 .93-.5 2.17 2.17 0 0 0 .6-.88 3.58 3.58 0 0 0 .21-1.3v-.89a5.35 5.35 0 0 0-.15-1.35 2.44 2.44 0 0 0-.5-1 2.18 2.18 0 0 0-.91-.62 4 4 0 0 0-1.38-.21h-.63v6.88h.63zm.3 10.12a4 4 0 0 0 1.2-.17 2.31 2.31 0 0 0 1.52-1.45 3.78 3.78 0 0 0 .21-1.32v-1.69a5.43 5.43 0 0 0-.15-1.35 2.38 2.38 0 0 0-.5-1 2.2 2.2 0 0 0-.91-.61 3.92 3.92 0 0 0-1.37-.21h-.94v7.79h.94zM426 375.06h3.29v21.68H426v-21.68zM433 375.06h3.29v9.47h.1l3.76-9.47h3.28l-4.19 10.17 4.66 11.51h-3.52l-4-10.32h-.1v10.32H433v-21.68zM448.14 375.06h3.78l4 21.68h-3.33l-.6-3.88h-4l-.57 3.88h-3.34zm3.49 15.32l-1.52-10.8H450l-1.54 10.8h3.2zM457.14 393.09a5.53 5.53 0 0 1 .11-1.1 8 8 0 0 1 .21-.85h2.26a11 11 0 0 0 .1 1.59 3 3 0 0 0 .31 1 1.26 1.26 0 0 0 .58.55 2.12 2.12 0 0 0 .88.17 1.28 1.28 0 0 0 1.05-.41 1.44 1.44 0 0 0 .33-.94 1.85 1.85 0 0 0-.08-.53 2.79 2.79 0 0 0-.22-.51 4 4 0 0 0-.34-.53l-.46-.58-2.35-2.77q-.46-.57-.88-1.16a9.67 9.67 0 0 1-.75-1.22 7.24 7.24 0 0 1-.52-1.31 5.2 5.2 0 0 1-.2-1.45 4.13 4.13 0 0 1 .35-1.76 3.54 3.54 0 0 1 .94-1.24 3.89 3.89 0 0 1 1.36-.74 5.48 5.48 0 0 1 1.64-.24 6 6 0 0 1 1.71.23 3.63 3.63 0 0 1 1.31.69 3 3 0 0 1 .84 1.14 4 4 0 0 1 .29 1.58 6.32 6.32 0 0 1-.11 1.18q-.11.57-.21 1h-2.22q0-.86-.08-1.51a3.88 3.88 0 0 0-.24-1.07 1.42 1.42 0 0 0-.47-.64 1.3 1.3 0 0 0-.78-.22 1.62 1.62 0 0 0-.7.13 1.24 1.24 0 0 0-.45.35 1.29 1.29 0 0 0-.24.48 2.18 2.18 0 0 0-.07.55 2.26 2.26 0 0 0 .29 1.13 8.85 8.85 0 0 0 .77 1.13l2.56 3c.19.23.4.51.65.83a9.34 9.34 0 0 1 .7 1.08 7.29 7.29 0 0 1 .56 1.29 4.89 4.89 0 0 1-.06 3.14 3.43 3.43 0 0 1-.86 1.29 3.94 3.94 0 0 1-1.4.83 5.71 5.71 0 0 1-1.9.29 6.67 6.67 0 0 1-1.65-.2 3.57 3.57 0 0 1-1.35-.65 3.08 3.08 0 0 1-.9-1.19 4.44 4.44 0 0 1-.31-1.83zM250.28 51.12c1.27 13.09-8.22 23.53-21.2 23.52s-22.58-10.46-21.45-23.56 10.62-23.81 21.2-23.8S249 38 250.28 51.12zM200.82 117.38c-.88 13.9-14.64 25.32-30.74 25.74s-26.34-10.35-22.88-24.32 17.22-25.75 30.73-26.1 23.76 10.79 22.89 24.68zM312.89 90.93c-1.58 8.19-10.47 12.88-19.89 12.23-13.51-.94-28.14-12.68-29.74-28.13-1.66-16.15 9.16-26.25 18.74-26.82a23.5 23.5 0 0 1 17.64 7.46c4.15 4.26 6 8.94 8.78 16 3.19 7.92 5.58 13.65 4.47 19.26zM267.53 139.05c1.51 12.28-9.56 22-24.73 21.88s-27-10-26.49-22.22 11.61-22.27 24.73-22.18 24.96 10.25 26.49 22.52zM189.19 71.25c-.9 7.37-7.09 13.45-13.83 13.65s-10.93-5.6-9.35-13 7.77-13.55 13.83-13.72 10.25 5.71 9.35 13.07zM236.31 98.46a12.76 12.76 0 0 1-12.83 13.3A12.34 12.34 0 0 1 211 98.51c.43-7.36 6.17-13.37 12.83-13.39s12.22 5.98 12.48 13.34zM274.35 22.25c3.43 6.91 2 18.81-6.42 21.05-7.57 2-16.34-4-19-13.54-2.89-10.54 2.41-20.6 7.33-21.14 2.06-.22 4 1.24 8.13 4.17 4.95 3.51 8.14 5.71 9.96 9.46zM238.32 3.49c.2 2.86-4 5.26-9.5 5.41S219 6.88 219.08 4s4.36-5.33 9.53-5.48 9.51 2.11 9.71 4.97zM206.63 7.76c.84 1.7-4.08 9-11.87 16.48s-15.4 12.18-16.17 10.5 5.52-9.16 13.22-16.61 13.96-12.07 14.82-10.37zM163.37 53.82c2 .91.69 7.49-3.29 14.7s-9.25 12.35-11.5 11.48-.46-7.48 3.72-14.72 9.02-12.37 11.07-11.46zM136.8 108.16c1.53-.29 2.17 5.52 1.56 13s-2.37 13.73-4 14-2.51-5.51-1.75-13 2.66-13.71 4.19-14zM241.55 171.57c-.28-.77 3.64-2 8.69-2.79s9.39-.73 9.71 0-3.52 2-8.62 2.76-9.5.8-9.78.03zM215.3 19.92c1.87 3.37 1 8.64-2.27 11.77s-7.56 3-9.36-.38-.48-8.63 2.7-11.79 7.06-2.96 8.93.4zM216.62 171c-3.19 3.31-12.06 1.74-27.86-.93-14-2.36-20.81-3.45-21.72-7.2-1.43-6.86 14.87-22 28.8-21.08 16.22 1.05 26.28 23.37 20.78 29.21zM278.58 108.1a7.37 7.37 0 0 1-7.78 8.79 10.48 10.48 0 0 1-10.06-9.17c-.47-5 3-8.93 7.78-8.83s9.27 4.23 10.06 9.21zM194 42.74c-.3 2.44-2.23 4.45-4.31 4.5s-3.47-1.89-3.08-4.33 2.31-4.46 4.31-4.51 3.34 1.9 3.08 4.34zM154.27 96.43A4.84 4.84 0 0 1 150 100a2.49 2.49 0 0 1-2.63-3.31 5 5 0 0 1 4.28-3.6 2.53 2.53 0 0 1 2.62 3.34zM216.07 65.09q-11.85 19.18-26.62 38.55M263.26 26.87a589.14 589.14 0 0 1-21.37 115M314.09 118.93a7.81 7.81 0 0 1 2.41 1.07c6.06 4.18 2.72 16.74-2.87 24.47-7.4 10.61-24.3 19.74-31.13 16.66a5.21 5.21 0 0 1-2.49-2.55c-8.8-16.74 2.1-28.9 1.91-28.89 8.48-9.97 23.42-13.29 32.17-10.76z"/></svg>