<svg id="Capa_1" data-name="Capa 1" xmlns="http://www.w3.org/2000/svg" viewBox="0 0 459.32 197.68"><defs><style>.cls-1{fill:#3c3c3b;}</style></defs><title>logo-solo-27</title><path class="cls-1" d="M36.47 152.75a55.2 55.2 0 0 1-7.6-.57 29.82 29.82 0 0 1-16-7.65 31.08 31.08 0 0 1-6.59-8.92 54.39 54.39 0 0 1-4.57-13.67A95.17 95.17 0 0 1 0 102.57V49.39A92 92 0 0 1 1.76 30a53.58 53.58 0 0 1 4.66-13.52 29.58 29.58 0 0 1 6.68-8.75 30 30 0 0 1 7.82-5A30.91 30.91 0 0 1 29 .53 57 57 0 0 1 36.39 0a39.16 39.16 0 0 1 15 2.5A24.74 24.74 0 0 1 61 9.36a25.94 25.94 0 0 1 5.19 10.15 47.88 47.88 0 0 1 1.54 12.3 76.44 76.44 0 0 1-.48 8.92q-.48 4.09-1.45 9H47.37V42.1q0-12.39-2.72-18.54t-8-6.15a11.87 11.87 0 0 0-5.54 1.23 9.63 9.63 0 0 0-4 4.17 25.94 25.94 0 0 0-2.42 7.78 72.42 72.42 0 0 0-.83 12v68.55a85.79 85.79 0 0 0 .66 11.69 22.92 22.92 0 0 0 2.15 7.47 8.9 8.9 0 0 0 3.91 4 13.16 13.16 0 0 0 5.84 1.19 9.32 9.32 0 0 0 4.22-1 9.78 9.78 0 0 0 3.56-3.16 17.41 17.41 0 0 0 2.46-5.45 29 29 0 0 0 .92-7.78v-14.65h20.89v13.89q0 18.11-8.26 26.72t-23.74 8.69zM86.4 1.32h22.76v132.19h31v17.93H86.4V1.32zM154.6 1.32h55.63v17.93h-32.87v44.91h25.4v17.93h-25.4v51.42h33.75v17.93H154.6V1.32zM216.39 1.32h23.29l16.52 118.91h1L273.78 1.32H297l-27.35 150.12h-26zM311.48 1.32h55.63v17.93h-32.86v44.91h25.4v17.93h-25.4v51.42H368v17.93h-56.52V1.32zM384.43 1.32h24.7q4.22 0 9.27.35a53 53 0 0 1 10.11 1.71 40.46 40.46 0 0 1 9.76 4.09 28.69 28.69 0 0 1 8.35 7.47 37.4 37.4 0 0 1 5.84 11.91 59.78 59.78 0 0 1 2.2 17.36V48q0 17.14-4.92 27.91t-14.5 15.51l24.08 60h-24.09l-20-56.16h-8.53v56.16h-22.27V1.32zm25.75 77.52a33.58 33.58 0 0 0 10.11-1.32 13.83 13.83 0 0 0 6.71-4.44 19.61 19.61 0 0 0 3.69-8.26 59.76 59.76 0 0 0 1.14-12.7V40.25a41.72 41.72 0 0 0-1.05-10 15.66 15.66 0 0 0-3.56-6.94 15 15 0 0 0-6.64-4 34.64 34.64 0 0 0-10.37-1.32h-3.43v60.85h3.43zM276.83 191.64a3.26 3.26 0 0 1-3.54-2.78h-.05q-.16.91-1.89 8.82h-1.26l4.27-20h1l-.57 3.48h.08a8.79 8.79 0 0 1 2.48-2.84 5.05 5.05 0 0 1 2.9-.9 3.17 3.17 0 0 1 2.64 1.17 5.74 5.74 0 0 1 .93 3.59 12.32 12.32 0 0 1-.91 4.71 8.56 8.56 0 0 1-2.51 3.52 5.59 5.59 0 0 1-3.57 1.23zm3.17-13.13a3.94 3.94 0 0 0-2.21.74 7.84 7.84 0 0 0-2 2.13 10.16 10.16 0 0 0-1.4 3 10.31 10.31 0 0 0-.46 2.65 3.91 3.91 0 0 0 .78 2.55 2.61 2.61 0 0 0 2.14 1 4.36 4.36 0 0 0 2.86-1.07 7.5 7.5 0 0 0 2.08-3.09 11.16 11.16 0 0 0 .8-4.13q-.04-3.78-2.59-3.78zM293.34 177.37a4.53 4.53 0 0 1 3.54 1.38 5.45 5.45 0 0 1 1.25 3.8 12 12 0 0 1-.91 4.68 7.57 7.57 0 0 1-2.48 3.32 6 6 0 0 1-3.63 1.14 4.45 4.45 0 0 1-3.55-1.39 5.87 5.87 0 0 1-1.21-4 11.23 11.23 0 0 1 .93-4.54 7.75 7.75 0 0 1 2.5-3.26 5.92 5.92 0 0 1 3.56-1.13zm-.1 1.09a4.44 4.44 0 0 0-2.83 1 6.78 6.78 0 0 0-2 2.86 10.46 10.46 0 0 0-.75 3.94q0 4.34 3.58 4.34a4.5 4.5 0 0 0 2.86-1 6.64 6.64 0 0 0 2-2.89 11.49 11.49 0 0 0 .74-4.2 4.41 4.41 0 0 0-.93-3 3.36 3.36 0 0 0-2.67-1.05zM310 191.44l-.76-8.71q-.18-2.84-.18-3.38H309a30.36 30.36 0 0 1-1.83 3.68l-4.52 8.4h-1.49l-.25-13.8h1.17l.17 10.42v2h.08q.77-1.7 1.9-3.77l4.74-8.65h1l.81 8.65q.18 1.87.18 3.77h.04l.3-.77 1.28-3 4.06-8.65h1.22l-6.45 13.8H310zM323 191.69a4.34 4.34 0 0 1-3.43-1.39 5.65 5.65 0 0 1-1.23-3.88 11.09 11.09 0 0 1 .9-4.41 8.34 8.34 0 0 1 2.48-3.35 5.5 5.5 0 0 1 3.48-1.24 3.33 3.33 0 0 1 2.31.77 2.69 2.69 0 0 1 .86 2.11 3.83 3.83 0 0 1-2.08 3.5 12.52 12.52 0 0 1-6.16 1.21h-.42a9.26 9.26 0 0 0-.08 1.24 4.79 4.79 0 0 0 .94 3.19 3.37 3.37 0 0 0 2.7 1.1 7.75 7.75 0 0 0 3.5-.93v1.19a8.47 8.47 0 0 1-3.77.89zm2.06-13.18A4.27 4.27 0 0 0 322 180a8.57 8.57 0 0 0-2.06 3.92h.62q6.56 0 6.56-3.43a1.9 1.9 0 0 0-.55-1.4 2 2 0 0 0-1.51-.58zM337.89 177.39a6.23 6.23 0 0 1 1.56.18l-.27 1.18a4.75 4.75 0 0 0-1.43-.19 3.72 3.72 0 0 0-2.27.81 7.25 7.25 0 0 0-1.94 2.44 13.53 13.53 0 0 0-1.27 3.52l-1.27 6.11h-1.24l2.93-13.8h1l-.37 2.59h.08a11.45 11.45 0 0 1 1.56-1.72 5.17 5.17 0 0 1 1.35-.82 4.11 4.11 0 0 1 1.58-.3zM344.33 191.69a4.34 4.34 0 0 1-3.43-1.39 5.65 5.65 0 0 1-1.23-3.88 11.09 11.09 0 0 1 .9-4.41 8.34 8.34 0 0 1 2.48-3.35 5.5 5.5 0 0 1 3.48-1.24 3.33 3.33 0 0 1 2.31.77 2.69 2.69 0 0 1 .86 2.11 3.83 3.83 0 0 1-2.08 3.5 12.52 12.52 0 0 1-6.16 1.21h-.42a9.26 9.26 0 0 0-.08 1.24 4.79 4.79 0 0 0 .94 3.19 3.37 3.37 0 0 0 2.7 1.1 7.75 7.75 0 0 0 3.5-.93v1.19a8.47 8.47 0 0 1-3.77.89zm2.06-13.18a4.27 4.27 0 0 0-3.09 1.49 8.57 8.57 0 0 0-2.06 3.92h.62q6.56 0 6.56-3.43a1.9 1.9 0 0 0-.55-1.4 2 2 0 0 0-1.48-.58zM358.48 177.42a3.26 3.26 0 0 1 3.52 2.78h.05q.15-.84 1.82-8.52h1.26L361 191.44h-1l.57-3.48h-.08q-2.2 3.73-5.38 3.73-3.57 0-3.57-4.75a12.42 12.42 0 0 1 .91-4.7 8.51 8.51 0 0 1 2.51-3.54 5.6 5.6 0 0 1 3.52-1.28zm-3.16 13.13a3.94 3.94 0 0 0 2.27-.79 7.93 7.93 0 0 0 2-2.13 10.41 10.41 0 0 0 1.35-2.93 10 10 0 0 0 .46-2.66 3.93 3.93 0 0 0-.78-2.56 2.61 2.61 0 0 0-2.14-1 4.34 4.34 0 0 0-2.84 1.05 7.57 7.57 0 0 0-2.08 3.08 11.08 11.08 0 0 0-.81 4.16q.01 3.78 2.57 3.78zM377.65 191.64a3.42 3.42 0 0 1-3.59-2.86H374l-.7 2.65h-1l4.15-19.75h1.21q-1.66 8-2.06 9.53h.08a9.21 9.21 0 0 1 2.53-2.91 5 5 0 0 1 2.93-.93q3.57 0 3.57 4.76a12.09 12.09 0 0 1-1 4.82 8.44 8.44 0 0 1-2.55 3.47 5.62 5.62 0 0 1-3.51 1.22zm3.17-13.13a4 4 0 0 0-2.29.78 7.79 7.79 0 0 0-2 2.15 11.55 11.55 0 0 0-1.8 5.6 3.79 3.79 0 0 0 .81 2.57 2.66 2.66 0 0 0 2.11.93 4.34 4.34 0 0 0 2.84-1.05 7.54 7.54 0 0 0 2.08-3.11 11.15 11.15 0 0 0 .81-4.13 5.1 5.1 0 0 0-.62-2.84 2.16 2.16 0 0 0-1.94-.9zM387.47 177.64h1.27l1 7q.65 4.46.7 5.7h.14q.55-1.33 2.36-4.66l4.42-8h1.31L389.66 194a11.41 11.41 0 0 1-1.55 2.26 5.08 5.08 0 0 1-1.45 1 4.31 4.31 0 0 1-1.86.38 5 5 0 0 1-1.64-.27v-1.17a4.89 4.89 0 0 0 1.74.34 3.07 3.07 0 0 0 1.87-.63 6.36 6.36 0 0 0 1.65-2.09l1.27-2.34zM406.2 169.75h3.33q.74 0 1.52.05a10.15 10.15 0 0 1 1.54.22 6.46 6.46 0 0 1 1.42.49 3.85 3.85 0 0 1 1.17.87 4.05 4.05 0 0 1 .8 1.35 5.61 5.61 0 0 1 .3 1.94v1.05a4.87 4.87 0 0 1-.25 1.59 4.69 4.69 0 0 1-.65 1.28 3.93 3.93 0 0 1-.93.91 3.09 3.09 0 0 1-1.07.49v.1a3.52 3.52 0 0 1 2.43 1.53 5.63 5.63 0 0 1 .82 3.17v1.1a7.21 7.21 0 0 1-.26 2.05 4.6 4.6 0 0 1-.73 1.49 4 4 0 0 1-1.12 1 5.8 5.8 0 0 1-1.42.62 9.07 9.07 0 0 1-1.65.3q-.88.08-1.8.08h-3.45v-21.68zm3.86 9.28a4.3 4.3 0 0 0 1.21-.16 2.45 2.45 0 0 0 .93-.5 2.18 2.18 0 0 0 .6-.88 3.6 3.6 0 0 0 .21-1.3v-.89a5.35 5.35 0 0 0-.15-1.35 2.44 2.44 0 0 0-.5-1 2.18 2.18 0 0 0-.91-.62 4 4 0 0 0-1.38-.21h-.63V179h.63zm.3 10.12a4 4 0 0 0 1.2-.17 2.41 2.41 0 0 0 .93-.53 2.38 2.38 0 0 0 .6-.92 3.76 3.76 0 0 0 .21-1.32v-1.69a5.43 5.43 0 0 0-.15-1.35 2.39 2.39 0 0 0-.5-1 2.21 2.21 0 0 0-.91-.61 3.92 3.92 0 0 0-1.37-.21h-.94v7.79h.94zM419.49 169.75h3.29v21.68h-3.29v-21.68zM426.49 169.75h3.29v9.47h.1l3.76-9.47h3.28l-4.19 10.17 4.66 11.51h-3.52l-4-10.32h-.1v10.32h-3.29v-21.68zM441.63 169.75h3.78l4 21.68h-3.31l-.6-3.88h-4l-.5 3.89h-3.34zm3.49 15.32l-1.52-10.8h-.14l-1.54 10.8h3.2zM450.63 187.78a5.53 5.53 0 0 1 .11-1.1 8.25 8.25 0 0 1 .21-.85h2.26a11.11 11.11 0 0 0 .1 1.59 3 3 0 0 0 .31 1 1.26 1.26 0 0 0 .58.55 2.12 2.12 0 0 0 .88.17 1.28 1.28 0 0 0 1.05-.41 1.44 1.44 0 0 0 .33-.94 1.85 1.85 0 0 0-.08-.53 2.72 2.72 0 0 0-.22-.51 3.92 3.92 0 0 0-.34-.53l-.46-.58-2.36-2.76q-.46-.57-.88-1.16a9.55 9.55 0 0 1-.75-1.22 7.18 7.18 0 0 1-.52-1.31 5.2 5.2 0 0 1-.2-1.45A4.13 4.13 0 0 1 451 176a3.55 3.55 0 0 1 .94-1.24 3.91 3.91 0 0 1 1.36-.74 5.48 5.48 0 0 1 1.64-.24 6 6 0 0 1 1.71.23 3.63 3.63 0 0 1 1.31.69 3 3 0 0 1 .84 1.14 4 4 0 0 1 .29 1.58 6.4 6.4 0 0 1-.11 1.18q-.11.57-.21 1h-2.22q0-.86-.08-1.51a3.92 3.92 0 0 0-.23-1.07 1.42 1.42 0 0 0-.47-.64 1.3 1.3 0 0 0-.78-.22 1.62 1.62 0 0 0-.7.13 1.25 1.25 0 0 0-.45.35 1.29 1.29 0 0 0-.24.48 2.13 2.13 0 0 0-.07.55 2.27 2.27 0 0 0 .29 1.13 8.85 8.85 0 0 0 .77 1.13l2.56 3q.28.34.65.83a9.34 9.34 0 0 1 .7 1.08 7.22 7.22 0 0 1 .56 1.29 4.89 4.89 0 0 1-.06 3.14 3.42 3.42 0 0 1-.86 1.29 3.94 3.94 0 0 1-1.4.83 5.71 5.71 0 0 1-1.9.29 6.68 6.68 0 0 1-1.65-.2 3.57 3.57 0 0 1-1.35-.65 3.09 3.09 0 0 1-.9-1.19 4.44 4.44 0 0 1-.31-1.86z"/></svg>