<svg height="600" overflow="visible" viewBox="0 0 1000 600" width="1000" xmlns="http://www.w3.org/2000/svg"><path d="M252.4 396.383c-3.816 0-6.908 3.092-6.908 6.907 0 3.814 3.092 6.906 6.907 6.906 3.813 0 6.906-3.092 6.906-6.906 0-3.815-3.092-6.907-6.907-6.907zm0 19.6c-1.618 0-2.928 1.31-2.928 2.927s1.31 2.928 2.927 2.928c1.616 0 2.927-1.31 2.927-2.928 0-1.616-1.31-2.928-2.928-2.928zm20.814-2.85L289.98 429.9c3.91-5.51 6.636-11.917 7.813-18.852h-23.716c-.255.71-.542 1.407-.863 2.084zm-13.056 11.837v23.713c6.935-1.177 13.34-3.906 18.85-7.813l-16.768-16.768c-.677.32-1.37.613-2.082.868zm13.054-31.522c.32.677.61 1.37.866 2.083h23.714c-1.177-6.934-3.905-13.34-7.813-18.85l-16.768 16.768zm-30.653-10.97c.676-.32 1.37-.613 2.08-.868v-23.713c-6.933 1.177-13.338 3.905-18.85 7.813l16.77 16.768zm-16.77 58.392c5.51 3.908 11.917 6.636 18.852 7.813V424.97c-.712-.255-1.406-.546-2.084-.867L225.79 440.87zm39.303-37.582c0 1.617 1.31 2.928 2.928 2.928s2.93-1.31 2.93-2.928c0-1.616-1.312-2.927-2.93-2.927s-2.927 1.312-2.927 2.928zm-25.388 0c0-1.616-1.31-2.927-2.928-2.927s-2.928 1.312-2.928 2.928c0 1.617 1.31 2.928 2.927 2.928s2.928-1.31 2.928-2.928zm39.303-37.58c-5.51-3.907-11.916-6.635-18.85-7.812v23.713c.71.254 1.406.545 2.083.865l16.768-16.766zm-26.61 24.887c1.618 0 2.93-1.312 2.93-2.928 0-1.617-1.312-2.928-2.93-2.928-1.616 0-2.926 1.31-2.926 2.927 0 1.616 1.31 2.928 2.927 2.928zm0-62.704c-41.64 0-75.398 33.76-75.398 75.4 0 41.64 33.757 75.398 75.4 75.398 41.64 0 75.397-33.758 75.397-75.398 0-41.642-33.756-75.4-75.398-75.4zm0 129.256c-29.743 0-53.855-24.112-53.855-53.855s24.112-53.855 53.856-53.855c29.743 0 53.854 24.112 53.854 53.856 0 29.743-24.11 53.856-53.855 53.856zm-21.678-46.098h-23.714c1.177 6.935 3.904 13.34 7.813 18.85l16.767-16.767c-.322-.677-.612-1.37-.867-2.082zm.864-17.602l-16.767-16.767c-3.91 5.51-6.635 11.916-7.812 18.85h23.715c.257-.71.544-1.407.864-2.084zm564.758 2.937c-3.814 0-6.907 3.092-6.907 6.907 0 3.814 3.093 6.906 6.907 6.906s6.907-3.092 6.907-6.906c0-3.815-3.094-6.907-6.908-6.907zm7.758 28.587v23.713c6.935-1.177 13.34-3.904 18.85-7.813l-16.766-16.768c-.678.322-1.372.613-2.084.868zm18.85-59.26c-5.51-3.908-11.916-6.637-18.85-7.813v23.713c.71.255 1.404.547 2.08.868l16.77-16.768zm-5.795 47.42l16.767 16.77c3.91-5.51 6.637-11.917 7.813-18.852H818.02c-.253.71-.544 1.405-.865 2.083zm123.497-56.358c-2.676-7.19-12.334-4.557-15.23-9.14 16.59-23.824-2.443-68.09-.763-66.018-6.26-9.752-20.4-14.986-31.527-19.883-15.56-6.846-32.44-14.372-49.348-20.103-9.293-3.15-17.867-4.19-27.416-7.312-10.954-3.58-20.77-8.66-21.523-8.66l.81.74c-.73-.52-.97-.742-.81-.74-86.83-83.912-121.447-94.266-155.154-102.22-.828-.195-41.427-2.437-41.427-2.437s-360.137.115-463.016.115c-6.033 1.382-12.47 5.415-17.06 8.414-8.87 5.8-10.007 16.563-14.01 27.415-8.28 22.44-29.783 81.43-29.853 194.345-.002 2.757-8.2.38-9.748 3.046-23.61 40.707 16.816 59.703 36.553 59.705 11.27 0 70.67 9.14 70.67 9.14h3.49c-1.48-6.055-2.27-12.378-2.27-18.888 0-43.74 35.458-79.2 79.2-79.2 43.74 0 79.2 35.46 79.2 79.2 0 6.51-.792 12.833-2.272 18.887h390.964c-1.592-6.234-2.44-12.766-2.44-19.496 0-43.403 35.188-78.59 78.592-78.59 43.405 0 78.59 35.187 78.59 78.59 0 6.73-.847 13.263-2.437 19.497h23.15s10.373-5.148 12.795-8.53c2.31-3.223 1.834-6.562 5.483-8.528 16.377-8.83 28.008-8.8 28.024-34.728.002-4.778.79-11.647-1.22-14.62zm-236.1-145.847c-2.556 3.88-7.805 2.414-7.922 29.852-39.596-.405-117.58-1.218-117.58-1.218s-.233-92.827-.59-94.436l-.02.004c.006-.036.013-.034.02-.004 17.02-2.842 48.97-4.055 71.26 1.222 57.918 16.805 79.257 52.49 91.784 67.757-5.99-.092-32.603-4.203-36.953-3.178zm81.948 171.55c.678-.32 1.372-.61 2.083-.865v-23.713c-6.935 1.177-13.34 3.904-18.85 7.813l16.767 16.766zm30.656 10.97c.32.678.608 1.374.863 2.086h23.715c-1.177-6.934-3.903-13.34-7.813-18.85l-16.766 16.766zm-20.814-65.554c-41.642 0-75.398 33.76-75.398 75.4 0 41.64 33.757 75.398 75.398 75.398s75.398-33.758 75.398-75.398c0-41.642-33.757-75.4-75.398-75.4zm0 129.256c-29.744 0-53.856-24.112-53.856-53.855s24.112-53.855 53.856-53.855 53.856 24.112 53.856 53.856c0 29.743-24.112 53.856-53.856 53.856zm0-41.164c-1.617 0-2.928 1.312-2.928 2.928 0 1.617 1.31 2.928 2.928 2.928s2.928-1.31 2.928-2.928c0-1.616-1.31-2.928-2.928-2.928zm-12.695-12.694c0-1.616-1.31-2.927-2.928-2.927-1.617 0-2.93 1.312-2.93 2.928 0 1.617 1.313 2.928 2.93 2.928 1.617 0 2.927-1.31 2.927-2.928zm-8.12-9.84l-16.766-16.768c-3.907 5.51-6.636 11.916-7.812 18.85h23.714c.255-.71.546-1.405.866-2.082zm33.51 9.84c0 1.617 1.31 2.928 2.927 2.928 1.616 0 2.928-1.31 2.928-2.928 0-1.616-1.312-2.927-2.928-2.927-1.617 0-2.928 1.312-2.928 2.928zm-12.695-12.693c1.617 0 2.928-1.312 2.928-2.928 0-1.617-1.31-2.928-2.928-2.928s-2.928 1.31-2.928 2.927c0 1.616 1.31 2.928 2.928 2.928zm-26.61 50.274c5.512 3.906 11.916 6.636 18.85 7.812V424.97c-.71-.255-1.403-.547-2.08-.868l-16.77 16.767zm4.932-29.822h-23.716c1.177 6.935 3.903 13.342 7.812 18.852l16.768-16.768c-.322-.677-.61-1.373-.864-2.084z" fill="#3c3c3b"/></svg>